<svg width="26" height="34" viewBox="0 0 26 34" fill="none" xmlns="http://www.w3.org/2000/svg">
<path d="M25.6875 16.3623L16.6415 7.31622C16.3165 6.93677 15.7455 6.89254 15.366 7.21756C14.9866 7.54251 14.9423 8.11359 15.2674 8.49304C15.2977 8.52841 15.3306 8.56145 15.366 8.59169L22.8652 16.0999H0.954382C0.454831 16.0999 0.0498047 16.505 0.0498047 17.0046C0.0498047 17.5042 0.454831 17.9092 0.954382 17.9092H22.8652L15.366 25.4083C14.9866 25.7333 14.9423 26.3043 15.2674 26.6838C15.5924 27.0632 16.1634 27.1075 16.5428 26.7824C16.5782 26.7521 16.6112 26.7192 16.6415 26.6838L25.6876 17.6377C26.0383 17.285 26.0383 16.7152 25.6875 16.3623Z" fill="#00338C"/>
</svg>
