<svg width="32" height="33" viewBox="0 0 32 33" fill="none" xmlns="http://www.w3.org/2000/svg">
<g clip-path="url(#clip0_1_11467)">
<path d="M0.563934 13.4121L30.6889 0.322114C30.8615 0.247121 31.0526 0.225799 31.2375 0.260922C31.4224 0.296045 31.5924 0.385988 31.7254 0.519051C31.8585 0.652113 31.9484 0.822137 31.9835 1.00701C32.0186 1.19188 31.9973 1.38303 31.9223 1.55561L18.8323 31.6806C18.7559 31.8564 18.6274 32.0045 18.4642 32.1051C18.301 32.2056 18.1109 32.2537 17.9195 32.2429C17.7281 32.2321 17.5446 32.1628 17.3938 32.0445C17.243 31.9261 17.1321 31.7644 17.076 31.5811L14.269 22.4032C13.9504 21.3588 13.3799 20.4087 12.6078 19.6366C11.8357 18.8645 10.8856 18.2941 9.84125 17.9755L0.663372 15.1685C0.480038 15.1124 0.318296 15.0015 0.199951 14.8507C0.0816059 14.6999 0.0123482 14.5164 0.00151062 14.325C-0.00932693 14.1335 0.0387802 13.9434 0.139345 13.7802C0.23991 13.617 0.388098 13.4885 0.563934 13.4121ZM10.3896 16.1824C13.1096 17.0143 15.2301 19.1349 16.0619 21.8548L18.1256 28.6021L29.2548 2.98961L3.64231 14.1188L10.3896 16.1824Z" fill="#002565"/>
</g>
<defs>
<clipPath id="clip0_1_11467">
<rect width="32" height="32" fill="white" transform="matrix(-1 0 0 1 32 0.244446)"/>
</clipPath>
</defs>
</svg>
