<svg width="241" height="60" viewBox="0 0 241 60" fill="none" xmlns="http://www.w3.org/2000/svg">
<g clip-path="url(#clip0_1_34565)">
<path d="M8.0223 25.6955C6.93367 25.6955 5.84771 25.4854 4.75908 25.0626C1.58636 23.4086 0 20.4198 0 16.096V15.886C0 14.1389 0.385943 12.57 1.15517 11.174C2.82138 8.54945 4.99597 7.23584 7.6816 7.23584H8.56528C10.0026 7.23584 11.376 7.79692 12.6776 8.92438V7.30764H19.4755L19.4595 25.2381H12.6456V24.0069H12.5764C11.2722 25.1318 9.75505 25.6955 8.0223 25.6955ZM7.20783 16.588C7.20783 17.6543 7.31962 18.4866 7.54852 19.0849C7.95576 20.0688 8.77289 20.5607 9.9946 20.5607C10.2315 20.5129 10.4604 20.4916 10.6733 20.4916C12.1239 20.1991 12.8479 18.8509 12.8479 16.4471C12.8027 14.6787 12.643 13.6683 12.3715 13.4236C12.3715 12.8253 11.6448 12.4504 10.1969 12.2988H9.78965C9.45961 12.2988 9.05237 12.368 8.56528 12.5089C7.65765 13.1311 7.20516 14.3011 7.20516 16.0243V16.5853L7.20783 16.588Z" fill="#00308A"/>
<path d="M33.1625 7.30762H38.209L40.9293 16.2928L43.2582 7.30762H49.0687L43.7666 25.2408H38.4646L35.6272 17.3299L32.7712 25.2408H27.5384L22.3029 7.30762H28.2517L30.578 16.1678L33.1625 7.30762Z" fill="#00308A"/>
<path d="M59.837 14.9003V25.239H53.039V14.9003H51.3223V9.94371H53.039C53.1295 5.83004 54.5855 3.06455 57.4069 1.64458C58.9932 1.08084 60.5796 0.801636 62.1659 0.801636H64.9181V5.63593C62.4135 5.76622 60.9709 6.10925 60.5849 6.67299C60.0872 7.38829 59.837 8.1488 59.837 8.95717V9.94105H64.069V14.8977H59.837V14.9003Z" fill="#00308A"/>
<path d="M75.6866 14.9002V25.2389H68.8887V14.9002H67.1719V9.94359H68.8887C68.9792 5.82992 70.4351 3.06443 73.2565 1.64446C74.8428 1.08072 76.4292 0.801514 78.0156 0.801514H80.7677V5.6358C78.2631 5.7661 76.8205 6.10913 76.4345 6.67286C75.9368 7.38817 75.6866 8.14868 75.6866 8.95705V9.94093H79.9187V14.8975H75.6866V14.9002Z" fill="#00308A"/>
<path d="M84.3438 0.62439H91.1417V5.54643H84.3438V0.62439ZM91.1417 25.2373H84.3438V7.30411H91.1417V25.2346V25.2373Z" fill="#00308A"/>
<path d="M104.445 6.42932H105.243C108.517 6.42932 111.112 7.79611 113.026 10.5244C112.89 10.6999 111.349 11.814 108.403 13.8642C107.474 12.5746 106.273 11.9311 104.799 11.9311C103.066 11.9311 101.842 12.9495 101.128 14.989L101.059 15.816V16.4489C101.059 18.172 101.948 19.4245 103.726 20.2116C104.054 20.294 104.344 20.3339 104.594 20.3339H105.172C106.292 20.3339 107.445 19.7143 108.621 18.4698C111.453 20.4163 112.965 21.4826 113.159 21.6688C111.698 23.578 109.971 24.8517 107.977 25.4846C106.697 25.7665 105.541 25.9074 104.511 25.9074C100.66 25.9074 97.6629 24.1683 95.5203 20.6876C94.7963 19.2117 94.4316 17.7519 94.4316 16.3106V16.0288C94.4316 12.8644 95.8477 10.2452 98.6797 8.17105C100.482 7.01167 102.401 6.42932 104.44 6.42932" fill="#00308A"/>
<path d="M122.936 25.6956C121.848 25.6956 120.762 25.4855 119.673 25.0627C116.5 23.4114 114.914 20.4226 114.914 16.0962V15.8861C114.914 14.1391 115.3 12.5702 116.069 11.1741C117.735 8.54957 119.91 7.23596 122.596 7.23596H123.479C124.917 7.23596 126.29 7.79704 127.592 8.92451V7.30776H134.39L134.374 25.2382H127.56V24.0071H127.49C126.186 25.1319 124.669 25.6956 122.936 25.6956ZM122.122 16.5881C122.122 17.6544 122.234 18.4867 122.463 19.085C122.87 20.0689 123.687 20.5608 124.909 20.5608C125.146 20.513 125.372 20.4917 125.587 20.4917C127.038 20.1992 127.762 18.851 127.762 16.4472C127.717 14.6789 127.557 13.6684 127.286 13.4237C127.286 12.8254 126.562 12.4505 125.111 12.2989H124.704C124.374 12.2989 123.966 12.3681 123.479 12.509C122.572 13.1312 122.119 14.3013 122.119 16.0244V16.5854L122.122 16.5881Z" fill="#00308A"/>
<path d="M147.761 6.42932H148.559C151.833 6.42932 154.428 7.79611 156.342 10.5244C156.206 10.6999 154.665 11.814 151.718 13.8642C150.79 12.5746 149.589 11.9311 148.115 11.9311C146.382 11.9311 145.157 12.9495 144.444 14.989L144.375 15.816V16.4489C144.375 18.172 145.264 19.4245 147.045 20.2116C147.372 20.294 147.662 20.3339 147.912 20.3339H148.49C149.61 20.3339 150.76 19.7143 151.939 18.4698C154.771 20.4163 156.283 21.4826 156.478 21.6688C155.016 23.578 153.289 24.8517 151.295 25.4846C150.015 25.7665 148.86 25.9074 147.83 25.9074C143.978 25.9074 140.981 24.1683 138.839 20.6876C138.115 19.2117 137.75 17.7519 137.75 16.3106V16.0288C137.75 12.8644 139.166 10.2452 141.998 8.17105C143.8 7.01167 145.719 6.42932 147.758 6.42932" fill="#00308A"/>
<path d="M165.167 24.9404L158.082 7.30774H165.628L168.279 16.4498L171.066 7.30774H178.476L173.243 22.1802C171.726 26.5279 169.237 29.4343 165.782 30.8995C164.547 31.3436 163.408 31.6254 162.367 31.7424H160.635V26.9082C162.514 26.7779 163.749 26.4322 164.34 25.8711C164.656 25.5653 164.933 25.2568 165.173 24.9404" fill="#00308A"/>
<path d="M30.6484 48.2322C30.6484 41.3982 35.8973 36.5985 43.0545 36.5985C47.4144 36.5985 50.8479 38.1887 53.0438 41.0472L48.3034 45.2752C46.9991 43.6213 45.4394 42.6693 43.4351 42.6693C40.3183 42.6693 38.2183 44.8312 38.2183 48.2322C38.2183 51.6332 40.3183 53.7951 43.4351 53.7951C45.4394 53.7951 46.9991 52.8405 48.3034 51.1891L53.0438 55.4171C50.8479 58.2784 47.4117 59.8659 43.0545 59.8659C35.8973 59.8659 30.6484 55.0661 30.6484 48.2322Z" fill="black"/>
<path d="M70.0624 55.4802H61.601L60.1051 59.3572H52.4688L62.2025 37.1083H69.5833L79.3171 59.3572H71.5556L70.0598 55.4802H70.0624ZM67.9943 50.0768L65.8304 44.482L63.6664 50.0768H67.9943Z" fill="black"/>
<path d="M101.403 45.5005C101.403 50.6485 97.4588 53.89 91.2544 53.89H88.0418V59.3572H80.5332V37.1083H91.2544C97.4588 37.1083 101.403 40.3498 101.403 45.4978M93.8309 45.4978C93.8309 43.8758 92.8435 42.8919 90.778 42.8919H88.0418V48.1038H90.778C92.8461 48.1038 93.8309 47.1172 93.8309 45.4978Z" fill="black"/>
<path d="M111.358 37.1083H103.85V59.3572H111.358V37.1083Z" fill="black"/>
<path d="M119.811 42.9238H113.287V37.1083H133.841V42.9238H127.317V59.3572H119.811V42.9238Z" fill="black"/>
<path d="M149.85 55.4802H141.388L139.892 59.3572H132.256L141.99 37.1083H149.37L159.107 59.3572H151.345L149.85 55.4802ZM147.781 50.0768L145.617 44.482L143.454 50.0768H147.781Z" fill="black"/>
<path d="M160.32 37.1083H167.829V53.5417H177.882V59.3572H160.32V37.1083Z" fill="black"/>
<path d="M209.575 30.5392H186.884C185.787 30.5392 184.898 29.651 184.898 28.5555V5.88642C184.898 4.79086 185.787 3.90271 186.884 3.90271H209.575C210.671 3.90271 211.56 4.79086 211.56 5.88642V28.5555C211.56 29.651 210.671 30.5392 209.575 30.5392Z" fill="#262626"/>
<path d="M209.575 59.3585H186.884C185.787 59.3585 184.898 58.4704 184.898 57.3748V34.7058C184.898 33.6102 185.787 32.722 186.884 32.722H209.575C210.671 32.722 211.56 33.6102 211.56 34.7058V57.3748C211.56 58.4704 210.671 59.3585 209.575 59.3585Z" fill="#4C4E4F"/>
<path d="M238.272 59.3585H215.581C214.485 59.3585 213.596 58.4704 213.596 57.3748V34.7058C213.596 33.6102 214.485 32.722 215.581 32.722H238.272C239.369 32.722 240.258 33.6102 240.258 34.7058V57.3748C240.258 58.4704 239.369 59.3585 238.272 59.3585Z" fill="#6E6F70"/>
<path d="M238.272 30.5392H215.581C214.485 30.5392 213.596 29.651 213.596 28.5555V5.88642C213.596 4.79086 214.485 3.90271 215.581 3.90271H238.272C239.369 3.90271 240.258 4.79086 240.258 5.88642V28.5555C240.258 29.651 239.369 30.5392 238.272 30.5392ZM221.927 23.6308L234.644 17.2223L221.927 10.8138V23.6334V23.6308Z" fill="#FCBD11"/>
</g>
<defs>
<clipPath id="clip0_1_34565">
<rect width="240.021" height="59.24" fill="white" transform="translate(0 0.62439)"/>
</clipPath>
</defs>
</svg>
