<svg width="98" height="25" viewBox="0 0 98 25" fill="none" xmlns="http://www.w3.org/2000/svg">
<g clip-path="url(#clip0_1_22926)">
<path d="M3.2899 10.9758C2.84561 10.9758 2.40241 10.8901 1.95812 10.7175C0.663288 10.0425 0.0158691 8.82271 0.0158691 7.05813V6.97239C0.0158691 6.2594 0.173379 5.61911 0.487312 5.04937C1.16732 3.97824 2.0548 3.44214 3.15085 3.44214H3.5115C4.09808 3.44214 4.6586 3.67112 5.18979 4.13126V3.47144H7.96413L7.95761 10.7892H5.17675V10.2867H5.14851C4.61623 10.7457 3.99706 10.9758 3.2899 10.9758ZM2.9575 7.2589C2.9575 7.69407 3.00312 8.03375 3.09654 8.27793C3.26274 8.67946 3.59622 8.88023 4.09482 8.88023C4.1915 8.8607 4.28492 8.85201 4.37182 8.85201C4.96384 8.73264 5.25931 8.18243 5.25931 7.20138C5.24084 6.4797 5.17567 6.06731 5.06487 5.96747C5.06487 5.72329 4.76831 5.57028 4.17738 5.50842H4.01118C3.87648 5.50842 3.71028 5.53663 3.5115 5.59415C3.14108 5.8481 2.95641 6.3256 2.95641 7.02883V7.25781L2.9575 7.2589Z" fill="#FCBD11"/>
<path d="M13.5482 3.47095H15.6078L16.7179 7.13794L17.6684 3.47095H20.0398L17.8759 10.7897H15.7121L14.5541 7.56118L13.3885 10.7897H11.2529L9.11621 3.47095H11.544L12.4934 7.08694L13.5482 3.47095Z" fill="#FCBD11"/>
<path d="M24.4345 6.56981V10.7892H21.6601V6.56981H20.9595V4.54694H21.6601C21.6971 2.86809 22.2912 1.73945 23.4427 1.15994C24.0901 0.929867 24.7375 0.815918 25.3849 0.815918H26.5082V2.78887C25.486 2.84204 24.8972 2.98204 24.7397 3.21211C24.5366 3.50403 24.4345 3.81441 24.4345 4.14432V4.54586H26.1616V6.56873H24.4345V6.56981Z" fill="#FCBD11"/>
<path d="M30.9069 6.56981V10.7892H28.1325V6.56981H27.4319V4.54694H28.1325C28.1695 2.86809 28.7637 1.73945 29.9151 1.15994C30.5625 0.929867 31.2099 0.815918 31.8574 0.815918H32.9806V2.78887C31.9584 2.84204 31.3696 2.98204 31.2121 3.21211C31.009 3.50403 30.9069 3.81441 30.9069 4.14432V4.54586H32.634V6.56873H30.9069V6.56981Z" fill="#FCBD11"/>
<path d="M34.4387 0.744141H37.2131V2.7529H34.4387V0.744141ZM37.2131 10.789H34.4387V3.47024H37.2131V10.788V10.789Z" fill="#FCBD11"/>
<path d="M42.6403 3.11279H42.9662C44.3023 3.11279 45.3614 3.6706 46.1424 4.78405C46.087 4.85567 45.4581 5.31039 44.2556 6.1471C43.8764 5.62076 43.3865 5.35814 42.7847 5.35814C42.0776 5.35814 41.5779 5.77378 41.2868 6.60615L41.2585 6.94366V7.20194C41.2585 7.90517 41.6213 8.41632 42.347 8.73755C42.4806 8.77119 42.599 8.78747 42.7011 8.78747H42.9368C43.3941 8.78747 43.8645 8.53461 44.3446 8.02672C45.5004 8.82111 46.1174 9.25629 46.1967 9.33225C45.6004 10.1114 44.8954 10.6313 44.0818 10.8896C43.5593 11.0046 43.0878 11.0621 42.6674 11.0621C41.0956 11.0621 39.8724 10.3524 38.998 8.9318C38.7025 8.3295 38.5537 7.73371 38.5537 7.14551V7.03048C38.5537 5.73905 39.1316 4.6701 40.2874 3.82362C41.0228 3.35046 41.806 3.11279 42.6381 3.11279" fill="#FCBD11"/>
<path d="M50.1891 10.9758C49.7448 10.9758 49.3016 10.8901 48.8573 10.7175C47.5625 10.0436 46.915 8.8238 46.915 7.05813V6.97239C46.915 6.2594 47.0725 5.61911 47.3865 5.04937C48.0665 3.97824 48.954 3.44214 50.05 3.44214H50.4107C50.9973 3.44214 51.5578 3.67112 52.089 4.13126V3.47144H54.8633L54.8568 10.7892H52.0759V10.2867H52.0477C51.5154 10.7457 50.8962 10.9758 50.1891 10.9758ZM49.8567 7.2589C49.8567 7.69407 49.9023 8.03375 49.9957 8.27793C50.1619 8.67946 50.4954 8.88023 50.994 8.88023C51.0907 8.8607 51.183 8.85201 51.271 8.85201C51.863 8.73264 52.1585 8.18243 52.1585 7.20138C52.14 6.4797 52.0748 6.06731 51.964 5.96747C51.964 5.72329 51.6686 5.57028 51.0766 5.50842H50.9104C50.7757 5.50842 50.6095 5.53663 50.4107 5.59415C50.0402 5.8481 49.8556 6.3256 49.8556 7.02883V7.25781L49.8567 7.2589Z" fill="#FCBD11"/>
<path d="M60.3184 3.11279H60.6443C61.9804 3.11279 63.0395 3.6706 63.8205 4.78405C63.7651 4.85567 63.1362 5.31039 61.9337 6.1471C61.5546 5.62076 61.0647 5.35814 60.4629 5.35814C59.7557 5.35814 59.256 5.77378 58.9649 6.60615L58.9366 6.94366V7.20194C58.9366 7.90517 59.2995 8.41632 60.0262 8.73755C60.1598 8.77119 60.2782 8.78747 60.3803 8.78747H60.616C61.0733 8.78747 61.5426 8.53461 62.0238 8.02672C63.1796 8.82111 63.7966 9.25629 63.8759 9.33225C63.2796 10.1114 62.5746 10.6313 61.7609 10.8896C61.2385 11.0046 60.767 11.0621 60.3466 11.0621C58.7748 11.0621 57.5516 10.3524 56.6772 8.9318C56.3817 8.3295 56.2329 7.73371 56.2329 7.14551V7.03048C56.2329 5.73905 56.8108 4.6701 57.9666 3.82362C58.702 3.35046 59.4852 3.11279 60.3173 3.11279" fill="#FCBD11"/>
<path d="M67.4219 10.6671L64.5303 3.47095H67.6099L68.6918 7.20197L69.8291 3.47095H72.8533L70.7177 9.54064C70.0985 11.315 69.0828 12.5012 67.6729 13.0991C67.1688 13.2803 66.7039 13.3954 66.2792 13.4431H65.572V11.4702C66.3389 11.417 66.8429 11.2759 67.0841 11.0469C67.2134 10.9221 67.3263 10.7963 67.4241 10.6671" fill="#FCBD11"/>
<path d="M12.5212 20.1732C12.5212 17.3841 14.6634 15.4253 17.5844 15.4253C19.3637 15.4253 20.765 16.0743 21.6611 17.2409L19.7265 18.9664C19.1942 18.2914 18.5577 17.9029 17.7397 17.9029C16.4677 17.9029 15.6106 18.7852 15.6106 20.1732C15.6106 21.5612 16.4677 22.4435 17.7397 22.4435C18.5577 22.4435 19.1942 22.0539 19.7265 21.38L21.6611 23.1055C20.765 24.2732 19.3626 24.9211 17.5844 24.9211C14.6634 24.9211 12.5212 22.9622 12.5212 20.1732Z" fill="white"/>
<path d="M28.6082 23.1319H25.155L24.5445 24.7142H21.428L25.4005 15.634H28.4127L32.3852 24.7142H29.2176L28.6072 23.1319H28.6082ZM27.7642 20.9267L26.8811 18.6434L25.9979 20.9267H27.7642Z" fill="white"/>
<path d="M41.3969 19.059C41.3969 21.16 39.787 22.4829 37.2549 22.4829H35.9438V24.7142H32.8794V15.634H37.2549C39.787 15.634 41.3969 16.9569 41.3969 19.0579M38.3064 19.0579C38.3064 18.3959 37.9034 17.9944 37.0605 17.9944H35.9438V20.1215H37.0605C37.9045 20.1215 38.3064 19.7188 38.3064 19.0579Z" fill="white"/>
<path d="M45.4613 15.634H42.397V24.7142H45.4613V15.634Z" fill="white"/>
<path d="M48.9154 18.0074H46.2529V15.634H54.6411V18.0074H51.9787V24.7142H48.9154V18.0074Z" fill="white"/>
<path d="M61.171 23.1319H57.7177L57.1072 24.7142H53.9907L57.9632 15.634H60.9755L64.949 24.7142H61.7815L61.171 23.1319ZM60.3269 20.9267L59.4438 18.6434L58.5607 20.9267H60.3269Z" fill="white"/>
<path d="M65.4436 15.634H68.508V22.3408H72.6108V24.7142H65.4436V15.634Z" fill="white"/>
<path d="M85.5454 12.9528H76.285C75.8374 12.9528 75.4746 12.5903 75.4746 12.1432V2.89161C75.4746 2.4445 75.8374 2.08203 76.285 2.08203H85.5454C85.993 2.08203 86.3558 2.4445 86.3558 2.89161V12.1432C86.3558 12.5903 85.993 12.9528 85.5454 12.9528Z" fill="#4C4E4F"/>
<path d="M85.5454 24.7143H76.285C75.8374 24.7143 75.4746 24.3518 75.4746 23.9047V14.6531C75.4746 14.206 75.8374 13.8435 76.285 13.8435H85.5454C85.993 13.8435 86.3558 14.206 86.3558 14.6531V23.9047C86.3558 24.3518 85.993 24.7143 85.5454 24.7143Z" fill="#6E6F70"/>
<path d="M97.2542 24.7143H87.9937C87.5462 24.7143 87.1833 24.3518 87.1833 23.9047V14.6531C87.1833 14.206 87.5462 13.8435 87.9937 13.8435H97.2542C97.7017 13.8435 98.0645 14.206 98.0645 14.6531V23.9047C98.0645 24.3518 97.7017 24.7143 97.2542 24.7143Z" fill="#8E8E8E"/>
<path d="M97.2542 12.9528H87.9937C87.5462 12.9528 87.1833 12.5903 87.1833 12.1432V2.89161C87.1833 2.4445 87.5462 2.08203 87.9937 2.08203H97.2542C97.7017 2.08203 98.0645 2.4445 98.0645 2.89161V12.1432C98.0645 12.5903 97.7017 12.9528 97.2542 12.9528ZM90.5834 10.1334L95.7736 7.51795L90.5834 4.90255V10.1344V10.1334Z" fill="#FCBD11"/>
</g>
<defs>
<clipPath id="clip0_1_22926">
<rect width="97.9562" height="24.1768" fill="white" transform="translate(0.0151367 0.743896)"/>
</clipPath>
</defs>
</svg>
