<svg width="237" height="59" viewBox="0 0 237 59" fill="none" xmlns="http://www.w3.org/2000/svg">
<g clip-path="url(#clip0_1_22867)">
<path d="M204.394 52.4479C205.012 51.2016 205.556 50.1755 206.031 49.1194C206.369 48.3637 206.999 48.5939 207.544 48.5939C214.264 48.5814 220.98 48.5564 227.697 48.6139C228.887 48.6239 229.264 48.3712 229.251 47.1149C229.183 40.1777 229.221 33.238 229.218 26.3008C229.218 25.7152 229.191 25.1296 229.464 24.5791C229.861 23.7782 230.549 23.4429 231.387 23.513C232.231 23.583 232.886 24.016 233.064 24.9044C233.159 25.3774 233.172 25.8729 233.172 26.3584C233.179 34.1264 233.179 41.897 233.174 49.665C233.174 51.9098 232.645 52.4429 230.411 52.4454C221.831 52.4504 213.252 52.4454 204.394 52.4454" fill="#FEBF00"/>
<path d="M199.399 3.67933C203.521 3.67933 207.645 3.67683 211.769 3.67933C213.418 3.67933 214.354 4.36504 214.397 5.5763C214.442 6.84511 213.508 7.53833 211.721 7.53833C204.359 7.53833 196.997 7.56335 189.635 7.5133C188.491 7.50579 188.142 7.78859 188.157 8.9648C188.222 14.1977 188.157 19.4306 188.207 24.6635C188.217 25.7522 188.011 26.2352 186.776 26.1826C183.729 26.055 184.251 26.548 184.236 23.5949C184.206 17.874 184.224 12.1506 184.229 6.42968C184.229 4.21739 184.783 3.67933 187.03 3.67933C191.151 3.67933 195.275 3.67933 199.399 3.67933Z" fill="#FEBF00"/>
<path d="M235.654 0.743896H235.065C234.638 0.954114 234.206 1.15682 233.782 1.37455C222.923 6.99536 212.067 12.6212 201.206 18.2345C200.378 18.6624 199.595 19.1154 199.776 20.1865C199.972 21.3327 200.9 21.4904 201.887 21.593C205.637 21.9834 209.382 22.4363 213.132 22.8192C214.093 22.9168 214.585 23.2397 214.688 24.2883C215.049 28.0271 215.516 31.7585 215.905 35.4948C216.006 36.4659 216.111 37.4043 217.251 37.6596C218.43 37.9224 218.885 37.0414 219.327 36.2006C222.75 29.6738 226.149 23.1346 229.605 16.6253C232.005 12.1107 234.224 7.49838 236.829 3.09133V1.62481C236.616 1.09176 236.116 0.939098 235.652 0.743896M218.84 30.327C218.732 30.322 218.624 30.317 218.518 30.312C218.242 27.9921 217.961 25.6722 217.687 23.3498C217.652 23.0595 217.655 22.7642 217.62 22.4739C217.379 20.4693 217.09 20.1515 215.115 19.9137C212.976 19.6585 210.833 19.4507 208.691 19.2155C208.177 19.1579 207.64 19.1755 207.035 18.765C215.1 14.5932 223.072 10.4715 231.046 6.34719C231.134 6.42227 231.222 6.49735 231.31 6.57243C227.153 14.4881 222.996 22.4063 218.84 30.322" fill="#FEBF00"/>
<path d="M9.29974 51.747C8.03969 51.747 6.77714 51.5018 5.51709 51.0138C1.83987 49.1018 0 45.6432 0 40.6406V40.3953C0 38.3757 0.446789 36.5588 1.34037 34.9447C3.2706 31.9065 5.7932 30.3875 8.90566 30.3875H9.92976C11.5989 30.3875 13.1878 31.0381 14.6963 32.3395V30.4675H22.5779L22.5578 51.214H14.6562V49.79H14.5784C13.0673 51.0914 11.3078 51.742 9.29723 51.742M8.35094 41.2061C8.35094 42.4399 8.48146 43.4034 8.74502 44.0941C9.21691 45.2328 10.1632 45.8034 11.5814 45.8034C11.8575 45.7483 12.121 45.7233 12.3695 45.7233C14.0513 45.3855 14.8921 43.8239 14.8921 41.046C14.8394 38.9989 14.6562 37.8327 14.3399 37.5474C14.3399 36.8566 13.4991 36.4212 11.8173 36.246H11.3454C10.9639 36.246 10.492 36.3261 9.92725 36.4888C8.87554 37.207 8.35094 38.5634 8.35094 40.5555V41.2061Z" fill="white"/>
<path d="M38.4469 30.4692H44.2978L47.4504 40.8625L50.1487 30.4692H56.8882L50.7411 51.2157H44.594L41.3033 42.0637L37.9925 51.2157H31.9257L25.8564 30.4692H32.7516L35.4524 40.7198L38.4469 30.4692Z" fill="white"/>
<path d="M69.3667 39.2557V51.2156H61.4851V39.2557H59.4946V33.5198H61.4851C61.5905 28.7599 63.2773 25.5591 66.5479 23.9199C68.3877 23.2692 70.2251 22.9438 72.065 22.9438H75.2577V28.5371C72.3536 28.6873 70.6794 29.0852 70.2326 29.7384C69.6553 30.5667 69.3667 31.4476 69.3667 32.3836V33.5223H74.2713V39.2582H69.3667V39.2557Z" fill="white"/>
<path d="M87.7561 39.2557V51.2156H79.8745V39.2557H77.884V33.5198H79.8745C79.9799 28.7599 81.6667 25.5591 84.9373 23.9199C86.7771 23.2692 88.6145 22.9438 90.4544 22.9438H93.6471V28.5371C90.743 28.6873 89.0688 29.0852 88.622 29.7384C88.0447 30.5667 87.7561 31.4476 87.7561 32.3836V33.5223H92.6607V39.2582H87.7561V39.2557Z" fill="white"/>
<path d="M97.79 22.7393H105.672V28.4352H97.79V22.7393ZM105.672 51.2162H97.79V30.4698H105.672V51.2162Z" fill="white"/>
<path d="M121.088 29.4505H122.014C125.809 29.4505 128.819 31.0296 131.038 34.1904C130.879 34.3931 129.095 35.6819 125.679 38.0544C124.602 36.5629 123.209 35.8171 121.502 35.8171C119.491 35.8171 118.073 36.9958 117.247 39.3557L117.17 40.3117V41.045C117.17 43.0371 118.201 44.4886 120.262 45.397C120.644 45.4921 120.977 45.5396 121.266 45.5396H121.936C123.236 45.5396 124.569 44.8214 125.935 43.3824C129.218 45.6322 130.972 46.8685 131.196 47.0837C129.501 49.2935 127.498 50.7651 125.187 51.4983C123.703 51.8236 122.363 51.9863 121.168 51.9863C116.703 51.9863 113.229 49.9717 110.746 45.9451C109.906 44.2358 109.486 42.5491 109.486 40.8798V40.5545C109.486 36.8932 111.128 33.8626 114.411 31.4626C116.499 30.1212 118.726 29.448 121.09 29.448" fill="white"/>
<path d="M142.531 51.747C141.271 51.747 140.009 51.5018 138.749 51.0138C135.071 49.1018 133.231 45.6432 133.231 40.6406V40.3953C133.231 38.3757 133.678 36.5588 134.572 34.9447C136.502 31.9065 139.025 30.3875 142.137 30.3875H143.161C144.83 30.3875 146.419 31.0381 147.93 32.3395V30.4675H155.812L155.792 51.214H147.89V49.79H147.812C146.301 51.0914 144.542 51.742 142.531 51.742M141.585 41.2061C141.585 42.4399 141.715 43.4034 141.979 44.0941C142.451 45.2328 143.397 45.8034 144.815 45.8034C145.091 45.7483 145.355 45.7233 145.603 45.7233C147.285 45.3855 148.126 43.8239 148.126 41.046C148.073 38.9989 147.89 37.8327 147.574 37.5474C147.574 36.8566 146.733 36.4212 145.051 36.246H144.579C144.198 36.246 143.726 36.3261 143.161 36.4888C142.109 37.207 141.585 38.5634 141.585 40.5555V41.2061Z" fill="white"/>
<path d="M171.303 29.4505H172.229C176.024 29.4505 179.034 31.0296 181.253 34.1904C181.095 34.3931 179.31 35.6819 175.894 38.0544C174.817 36.5629 173.424 35.8171 171.717 35.8171C169.706 35.8171 168.288 36.9958 167.462 39.3557L167.385 40.3117V41.045C167.385 43.0371 168.416 44.4886 170.477 45.397C170.859 45.4921 171.192 45.5396 171.481 45.5396H172.151C173.451 45.5396 174.784 44.8214 176.15 43.3824C179.433 45.6322 181.187 46.8685 181.411 47.0837C179.717 49.2935 177.714 50.7651 175.402 51.4983C173.918 51.8236 172.578 51.9863 171.383 51.9863C166.918 51.9863 163.444 49.9717 160.961 45.9451C160.121 44.2358 159.701 42.5491 159.701 40.8798V40.5545C159.701 36.8932 161.343 33.8626 164.626 31.4626C166.714 30.1212 168.941 29.448 171.305 29.448" fill="white"/>
<path d="M191.486 50.8703L183.27 30.4692H192.018L195.09 41.0452L198.321 30.4692H206.91L200.841 47.677C199.081 52.7072 196.197 56.0707 192.191 57.7675C190.76 58.283 189.44 58.6083 188.23 58.7435H186.22V53.1502C188.401 53 189.832 52.6021 190.514 51.949C190.883 51.5961 191.205 51.2382 191.481 50.8703" fill="white"/>
</g>
<defs>
<clipPath id="clip0_1_22867">
<rect width="236.833" height="58.1729" fill="white" transform="translate(0 0.743896)"/>
</clipPath>
</defs>
</svg>
