<svg width="248" height="60" viewBox="0 0 248 60" fill="none" xmlns="http://www.w3.org/2000/svg">
<path d="M202.648 49.9445C203.222 48.7963 203.704 47.8548 204.141 46.8904C204.439 46.2015 205.036 46.4082 205.519 46.4082C211.673 46.4082 217.804 46.3622 223.958 46.4311C225.037 46.4311 225.382 46.2015 225.382 45.0534C225.313 38.6926 225.359 32.3319 225.359 25.9482C225.359 25.42 225.336 24.8689 225.588 24.3637C225.956 23.6289 226.576 23.3304 227.356 23.3763C228.137 23.4452 228.734 23.8356 228.895 24.6622C228.987 25.0985 228.987 25.5578 228.987 25.9941C228.987 33.1126 228.987 40.2541 228.987 47.3726C228.987 49.4393 228.504 49.9215 226.461 49.9215C218.607 49.9445 210.754 49.9445 202.648 49.9445Z" fill="#FEBF00"/>
<path d="M198.079 5.18966C201.845 5.18966 205.633 5.18966 209.399 5.18966C210.915 5.18966 211.765 5.80966 211.81 6.93485C211.856 8.10596 211.007 8.72595 209.353 8.72595C202.625 8.72595 195.874 8.74892 189.146 8.70299C188.09 8.70299 187.791 8.95559 187.791 10.0348C187.86 14.8341 187.791 19.6334 187.837 24.4326C187.837 25.443 187.653 25.8793 186.528 25.8334C183.75 25.7185 184.209 26.1778 184.209 23.4682C184.186 18.2097 184.209 12.9741 184.209 7.71558C184.209 5.69484 184.714 5.18966 186.781 5.18966C190.547 5.18966 194.313 5.18966 198.079 5.18966Z" fill="#FEBF00"/>
<path d="M231.26 2.50299C231.076 2.50299 230.893 2.50299 230.732 2.50299C230.342 2.68669 229.951 2.8704 229.561 3.07706C219.618 8.24373 209.698 13.3874 199.755 18.5541C198.997 18.9445 198.285 19.3578 198.446 20.3452C198.63 21.4015 199.479 21.5393 200.375 21.6311C203.796 21.9986 207.241 22.4119 210.662 22.7563C211.535 22.8482 211.994 23.1467 212.086 24.1111C212.407 27.5326 212.844 30.9541 213.211 34.3985C213.303 35.2941 213.395 36.1437 214.451 36.3734C215.53 36.626 215.944 35.7993 216.357 35.0415C219.48 29.0482 222.603 23.0548 225.772 17.0845C227.976 12.9511 229.997 8.70299 232.385 4.66151C232.385 4.20225 232.385 3.76595 232.385 3.30669C232.133 2.82447 231.673 2.68669 231.26 2.50299ZM215.875 29.6452C215.783 29.6452 215.668 29.6452 215.576 29.6223C215.324 27.4867 215.071 25.3741 214.819 23.2386C214.796 22.963 214.796 22.7104 214.75 22.4348C214.52 20.5978 214.267 20.2993 212.453 20.0926C210.502 19.863 208.527 19.6793 206.575 19.4497C206.093 19.4037 205.61 19.4037 205.059 19.0363C212.43 15.2015 219.733 11.4356 227.035 7.64669C227.127 7.71558 227.196 7.78448 227.265 7.85337C223.476 15.1097 219.687 22.3889 215.875 29.6452Z" fill="#FEBF00"/>
<path d="M24.1799 49.3015C23.0318 49.3015 21.8836 49.0718 20.7125 48.6355C17.3369 46.8904 15.6606 43.6985 15.6606 39.1059V38.8763C15.6606 37.0163 16.074 35.363 16.8777 33.8704C18.6458 31.0918 20.9421 29.6911 23.7895 29.6911H24.731C26.2466 29.6911 27.7162 30.2881 29.094 31.4822V29.76H36.3043L36.2814 48.7963H29.0481V47.4874H28.9792C27.6243 48.7044 26.0169 49.3015 24.1799 49.3015ZM23.3073 39.6341C23.3073 40.7592 23.4221 41.6548 23.6747 42.2748C24.111 43.3311 24.9836 43.8363 26.2695 43.8363C26.5221 43.7904 26.7518 43.7674 26.9814 43.7674C28.5199 43.4459 29.2777 42.0222 29.2777 39.4733C29.2318 37.5904 29.071 36.5341 28.7725 36.2585C28.7725 35.6156 28.0147 35.2252 26.4762 35.0644H26.0399C25.6955 35.0644 25.2592 35.1333 24.731 35.2941C23.7666 35.96 23.2843 37.2 23.2843 39.037V39.6341H23.3073Z" fill="#00338C"/>
<path d="M50.8399 29.783H56.1903L59.0836 39.3126L61.5636 29.783H67.7177L62.0918 48.8192H56.4658L53.4577 40.4148L50.4266 48.8192H44.8695L39.3125 29.783H45.6273L48.1073 39.1978L50.8399 29.783Z" fill="#00338C"/>
<path d="M79.1299 37.8429V48.8192H71.9195V37.8429H70.1055V32.5844H71.9195C72.0114 28.2215 73.5499 25.2822 76.5581 23.7667C78.2344 23.1696 79.9336 22.8711 81.6099 22.8711H84.5262V28.0148C81.8625 28.1526 80.347 28.52 79.9336 29.117C79.4055 29.8748 79.1299 30.6785 79.1299 31.5511V32.6074H83.6077V37.8659H79.1299V37.8429Z" fill="#00338C"/>
<path d="M95.939 37.8429V48.8192H88.7286V37.8429H86.9146V32.5844H88.7286C88.8205 28.2215 90.359 25.2822 93.3671 23.7667C95.0434 23.1696 96.7427 22.8711 98.419 22.8711H101.335V28.0148C98.6716 28.1526 97.156 28.52 96.7427 29.117C96.2145 29.8748 95.939 30.6785 95.939 31.5511V32.6074H100.417V37.8659H95.939V37.8429Z" fill="#00338C"/>
<path d="M105.124 27.923V22.6874H112.335V27.923H105.124ZM112.335 29.783V48.8192H105.124V29.783H112.335Z" fill="#00338C"/>
<path d="M126.434 28.8415H127.283C130.751 28.8415 133.506 30.2882 135.527 33.1815C135.389 33.3652 133.759 34.5593 130.636 36.7178C129.649 35.34 128.386 34.6741 126.824 34.6741C124.987 34.6741 123.678 35.7533 122.92 37.9119L122.852 38.8074V39.4733C122.852 41.3104 123.793 42.6422 125.676 43.4689C126.02 43.5607 126.342 43.6067 126.595 43.6067H127.215C128.409 43.6067 129.626 42.9407 130.866 41.6319C133.874 43.6985 135.481 44.8237 135.688 45.0304C134.126 47.0511 132.312 48.4059 130.2 49.0719C128.845 49.3704 127.605 49.5311 126.526 49.5311C122.438 49.5311 119.269 47.6941 116.996 43.997C116.238 42.4356 115.848 40.8741 115.848 39.3585V39.037C115.848 35.6845 117.34 32.9059 120.349 30.7015C122.232 29.4615 124.275 28.8415 126.434 28.8415Z" fill="#00338C"/>
<path d="M146.067 49.3015C144.919 49.3015 143.771 49.0718 142.6 48.6355C139.224 46.8904 137.548 43.6985 137.548 39.1059V38.8763C137.548 37.0163 137.961 35.363 138.765 33.8704C140.533 31.0918 142.83 29.6911 145.677 29.6911H146.618C148.134 29.6911 149.604 30.2881 150.981 31.4822V29.76H158.215L158.192 48.7963H150.958V47.4874H150.89C149.512 48.7044 147.904 49.3015 146.067 49.3015ZM145.195 39.6341C145.195 40.7592 145.31 41.6548 145.562 42.2748C145.998 43.3311 146.871 43.8363 148.157 43.8363C148.41 43.7904 148.639 43.7674 148.869 43.7674C150.407 43.4459 151.165 42.0222 151.165 39.4733C151.119 37.5904 150.958 36.5341 150.66 36.2585C150.66 35.6156 149.902 35.2252 148.364 35.0644H147.927C147.583 35.0644 147.147 35.1333 146.618 35.2941C145.654 35.96 145.172 37.2 145.172 39.037V39.6341H145.195Z" fill="#00338C"/>
<path d="M172.383 28.8415H173.232C176.7 28.8415 179.455 30.2882 181.499 33.1815C181.361 33.3652 179.731 34.5593 176.608 36.7178C175.621 35.34 174.358 34.6741 172.796 34.6741C170.959 34.6741 169.65 35.7533 168.892 37.9119L168.824 38.7845V39.4504C168.824 41.2874 169.765 42.6193 171.648 43.4459C171.992 43.5378 172.314 43.5837 172.566 43.5837H173.186C174.381 43.5837 175.598 42.9178 176.838 41.6089C179.846 43.6756 181.453 44.8007 181.66 45.0074C180.098 47.0282 178.284 48.383 176.172 49.0489C174.817 49.3474 173.577 49.5082 172.498 49.5082C168.41 49.5082 165.241 47.6711 162.968 43.9741C162.21 42.4126 161.82 40.8511 161.82 39.3356V39.037C161.82 35.6845 163.312 32.9059 166.321 30.7015C168.181 29.4615 170.224 28.8415 172.383 28.8415Z" fill="#00338C"/>
<path d="M190.845 48.4978L183.336 29.783H191.35L194.151 39.4963L197.114 29.783H204.967L199.41 45.5815C197.803 50.197 195.162 53.2741 191.488 54.8355C190.179 55.3178 188.962 55.6163 187.86 55.7311H186.023V50.5874C188.02 50.4496 189.329 50.0822 189.949 49.4852C190.294 49.1637 190.592 48.8422 190.845 48.4978Z" fill="#00338C"/>
</svg>
