<svg width="64" height="65" viewBox="0 0 64 65" fill="none" xmlns="http://www.w3.org/2000/svg">
<g clip-path="url(#clip0_1_69035)">
<path d="M38.9893 33.7922H24.5029C23.7436 33.7922 23.1279 34.4079 23.1279 35.1672V37.4306V40.2826V46.604C23.1279 47.3634 23.7436 47.979 24.5029 47.979H38.9894C39.7488 47.979 40.3644 47.3634 40.3644 46.604V40.2895V37.4419V35.1672C40.3643 34.4079 39.7487 33.7922 38.9893 33.7922ZM37.6143 45.2289H25.8778V36.5421H37.6143V45.2289Z" fill="#FEBF00"/>
<path d="M62.625 13.0791H50.9114V6.71795C50.9114 3.14845 48.0074 0.244446 44.4379 0.244446H20.4516C16.8821 0.244446 13.9781 3.14845 13.9781 6.71795V13.0791H1.375C0.615625 13.0791 0 13.6947 0 14.4541V32.8798C0 33.4989 0.41375 34.0417 1.01063 34.2057L3.17675 34.8008V62.8694C3.17675 63.6288 3.79238 64.2444 4.55175 64.2444H58.9398C59.6991 64.2444 60.3148 63.6288 60.3148 62.8694V34.9248L62.982 34.2076C63.5826 34.0461 64 33.5017 64 32.8797V14.4541C64 13.6947 63.3844 13.0791 62.625 13.0791ZM16.7281 6.71795C16.7281 4.66482 18.3985 2.99445 20.4516 2.99445H44.4379C46.491 2.99445 48.1614 4.66482 48.1614 6.71795V13.0791H16.7281V6.71795ZM61.25 31.8257L40.364 37.4418V40.2894L57.5648 35.6643V61.4944H5.92688V35.5564L23.1276 40.2824V37.4304L2.75 31.8317V15.8291H61.25V31.8257Z" fill="#000088"/>
</g>
<defs>
<clipPath id="clip0_1_69035">
<rect width="64" height="64" fill="white" transform="translate(0 0.244446)"/>
</clipPath>
</defs>
</svg>
