<svg width="44" height="41" viewBox="0 0 44 41" fill="none" xmlns="http://www.w3.org/2000/svg">
<g clip-path="url(#clip0_7_23352)">
<path d="M12.6729 11.3321H12.6709C12.5591 11.3319 12.4484 11.3538 12.3451 11.3966C12.2418 11.4394 12.148 11.5022 12.0692 11.5814C11.9888 11.6612 11.925 11.7562 11.8816 11.8608C11.8382 11.9655 11.8161 12.0777 11.8164 12.1909V25.069C11.8164 25.5412 12.2021 25.9263 12.6763 25.9276C14.6753 25.9323 18.0245 26.349 20.335 28.7668V15.2896C20.335 15.1295 20.2941 14.9792 20.2169 14.8547C18.3206 11.8008 14.6765 11.3368 12.6729 11.3321ZM30.1869 25.069V12.1909C30.1869 11.9604 30.0971 11.7439 29.9341 11.5813C29.8553 11.5021 29.7615 11.4393 29.6582 11.3965C29.555 11.3537 29.4443 11.3318 29.3325 11.332H29.3304C27.3269 11.3368 23.6828 11.8008 21.7864 14.8547C21.7092 14.9792 21.6684 15.1295 21.6684 15.2896V28.7668C23.9789 26.3489 27.3281 25.9322 29.3271 25.9275C29.8012 25.9263 30.1869 25.5411 30.1869 25.069Z" fill="black"/>
<path d="M32.1413 14.3018H31.5186V25.0687C31.5186 26.2745 30.5362 27.2577 29.3286 27.2607C27.633 27.2647 24.8372 27.5963 22.8572 29.4703C26.2817 28.6318 29.8917 29.1769 31.9491 29.6457C32.0751 29.6748 32.2061 29.675 32.3322 29.6462C32.4583 29.6175 32.5763 29.5606 32.6773 29.4797C32.7782 29.3996 32.8597 29.2975 32.9156 29.1814C32.9715 29.0652 33.0003 28.9379 33 28.809V15.1604C33.0001 14.687 32.6148 14.3018 32.1413 14.3018ZM10.4814 25.0687V14.3018H9.85867C9.38529 14.3018 9 14.687 9 15.1604V28.8087C9 29.0713 9.11766 29.3159 9.32275 29.4795C9.42371 29.5604 9.54167 29.6173 9.66778 29.6461C9.7939 29.6748 9.92488 29.6746 10.0509 29.6455C12.1083 29.1766 15.7184 28.6316 19.1427 29.4701C17.1628 27.5961 14.367 27.2646 12.6714 27.2606C11.4638 27.2577 10.4814 26.2745 10.4814 25.0687Z" fill="black"/>
</g>
<path d="M1 20.5V36.5C1 38.7091 2.79086 40.5 5 40.5H21" stroke="#00338C"/>
<path d="M43 20.5V4.5C43 2.29086 41.2091 0.5 39 0.5H23" stroke="#FEBF00"/>
<defs>
<clipPath id="clip0_7_23352">
<rect width="24" height="24" fill="white" transform="translate(9 8.5)"/>
</clipPath>
</defs>
</svg>
