<svg width="35" height="35" viewBox="0 0 35 35" fill="none" xmlns="http://www.w3.org/2000/svg">
<rect x="0.669189" y="0.743896" width="34" height="34" rx="4" fill="#FEBF00"/>
<path d="M25.2249 20.5588C24.1228 20.5588 23.0408 20.3865 22.0154 20.0476C21.5129 19.8762 20.8953 20.0335 20.5886 20.3484L18.5647 21.8763C16.2175 20.6233 14.7717 19.178 13.5359 16.8484L15.0188 14.8773C15.404 14.4925 15.5422 13.9305 15.3767 13.4031C15.0364 12.3723 14.8635 11.2908 14.8635 10.1883C14.8635 9.39185 14.2156 8.7439 13.4192 8.7439H10.1135C9.31714 8.7439 8.66919 9.39185 8.66919 10.1883C8.66919 19.3172 16.096 26.7439 25.2249 26.7439C26.0213 26.7439 26.6692 26.0959 26.6692 25.2995V22.0031C26.6692 21.2068 26.0212 20.5588 25.2249 20.5588Z" fill="white"/>
</svg>
