<svg width="27" height="27" viewBox="0 0 27 27" fill="none" xmlns="http://www.w3.org/2000/svg">
<rect x="0.586914" y="0.920654" width="26" height="26" rx="4" fill="white"/>
<path d="M22.5869 22.9207V16.3282C22.5869 13.0882 21.8894 10.6132 18.1094 10.6132C16.2869 10.6132 15.0719 11.6032 14.5769 12.5482H14.5319V10.9057H10.9544V22.9207H14.6894V16.9582C14.6894 15.3832 14.9819 13.8757 16.9169 13.8757C18.8294 13.8757 18.8519 15.6532 18.8519 17.0482V22.8982H22.5869V22.9207ZM4.87941 10.9057H8.61441V22.9207H4.87941V10.9057ZM6.74691 4.92065C5.55441 4.92065 4.58691 5.88815 4.58691 7.08065C4.58691 8.27315 5.55441 9.26315 6.74691 9.26315C7.93941 9.26315 8.90691 8.27315 8.90691 7.08065C8.90691 5.88815 7.93941 4.92065 6.74691 4.92065Z" fill="#00338C"/>
</svg>
