<svg width="35" height="35" viewBox="0 0 35 35" fill="none" xmlns="http://www.w3.org/2000/svg">
<rect x="0.669189" y="0.743896" width="34" height="34" rx="4" fill="#FEBF00"/>
<g clip-path="url(#clip0_1_22897)">
<path d="M17.6692 9.3064C16.0004 9.3064 14.3691 9.80125 12.9816 10.7284C11.594 11.6555 10.5126 12.9733 9.87396 14.515C9.23535 16.0568 9.06825 17.7533 9.39382 19.39C9.71938 21.0267 10.523 22.5301 11.703 23.7101C12.883 24.8901 14.3864 25.6937 16.0231 26.0193C17.6598 26.3448 19.3563 26.1777 20.8981 25.5391C22.4398 24.9005 23.7576 23.8191 24.6847 22.4315C25.6118 21.044 26.1067 19.4127 26.1067 17.7439C26.1042 15.5069 25.2144 13.3623 23.6326 11.7805C22.0508 10.1987 19.9062 9.30893 17.6692 9.3064ZM17.6692 25.0564C16.5076 25.0564 15.2915 23.559 14.6879 21.1189H20.6504C20.0469 23.559 18.8308 25.0564 17.6692 25.0564ZM14.4596 19.9939C14.2391 18.502 14.2391 16.9858 14.4596 15.4939H20.8788C20.9904 16.2387 21.0457 16.9908 21.0442 17.7439C21.0457 18.497 20.9904 19.2491 20.8788 19.9939H14.4596ZM10.3567 17.7439C10.3571 16.9798 10.4778 16.2205 10.7144 15.4939H13.3301C13.1156 16.9862 13.1156 18.5016 13.3301 19.9939H10.7144C10.4778 19.2673 10.3571 18.508 10.3567 17.7439ZM17.6692 10.4314C18.8308 10.4314 20.0469 11.9288 20.6504 14.3689H14.6879C15.2915 11.9288 16.5076 10.4314 17.6692 10.4314ZM22.0083 15.4939H24.6239C25.1008 16.956 25.1008 18.5318 24.6239 19.9939H22.0083C22.115 19.2486 22.1687 18.4968 22.1692 17.7439C22.1687 16.991 22.115 16.2392 22.0083 15.4939ZM24.1498 14.3689H21.8058C21.5555 13.1455 21.0647 11.9839 20.3619 10.9517C21.9921 11.6018 23.3357 12.814 24.1498 14.3689ZM14.9765 10.9517C14.2737 11.9839 13.7829 13.1455 13.5326 14.3689H11.1886C12.0026 12.814 13.3463 11.6018 14.9765 10.9517ZM11.1886 21.1189H13.5326C13.7829 22.3423 14.2737 23.5039 14.9765 24.5361C13.3463 23.8859 12.0026 22.6738 11.1886 21.1189ZM20.3619 24.5361C21.0647 23.5039 21.5555 22.3423 21.8058 21.1189H24.1498C23.3357 22.6738 21.9921 23.8859 20.3619 24.5361Z" fill="white"/>
</g>
<defs>
<clipPath id="clip0_1_22897">
<rect width="18" height="18" fill="white" transform="translate(8.66919 8.7439)"/>
</clipPath>
</defs>
</svg>
