<svg width="27" height="27" viewBox="0 0 27 27" fill="none" xmlns="http://www.w3.org/2000/svg">
<rect x="0.586914" y="0.920654" width="25.9996" height="26" rx="4" fill="white"/>
<path d="M18.0866 4.92065H9.0868C6.61208 4.92065 4.58691 6.94582 4.58691 9.42054V18.4208C4.58691 20.8948 6.61208 22.9207 9.0868 22.9207H18.0866C20.5613 22.9207 22.5865 20.8948 22.5865 18.4208V9.42054C22.5865 6.94582 20.5613 4.92065 18.0866 4.92065ZM21.0864 18.4208C21.0864 20.0745 19.7412 21.4206 18.0866 21.4206H9.0868C7.43287 21.4206 6.08695 20.0745 6.08695 18.4208V9.42054C6.08695 7.7664 7.43287 6.42069 9.0868 6.42069H18.0866C19.7412 6.42069 21.0864 7.7664 21.0864 9.42054V18.4208Z" fill="#00338C"/>
<path d="M18.4624 10.1704C19.0837 10.1704 19.5873 9.66669 19.5873 9.04538C19.5873 8.42408 19.0837 7.92041 18.4624 7.92041C17.8411 7.92041 17.3374 8.42408 17.3374 9.04538C17.3374 9.66669 17.8411 10.1704 18.4624 10.1704Z" fill="#00338C"/>
<path d="M13.5868 9.42065C11.1011 9.42065 9.08691 11.435 9.08691 13.9205C9.08691 16.4052 11.1011 18.4209 13.5868 18.4209C16.0719 18.4209 18.0867 16.4052 18.0867 13.9205C18.0867 11.435 16.0719 9.42065 13.5868 9.42065ZM13.5868 16.9208C11.9302 16.9208 10.587 15.5776 10.587 13.9205C10.587 12.2635 11.9302 10.9207 13.5868 10.9207C15.2435 10.9207 16.5867 12.2635 16.5867 13.9205C16.5867 15.5776 15.2435 16.9208 13.5868 16.9208Z" fill="#00338C"/>
</svg>
