<svg width="35" height="35" viewBox="0 0 35 35" fill="none" xmlns="http://www.w3.org/2000/svg">
<rect x="0.669189" y="0.243896" width="34" height="34" rx="4" fill="#FEBF00"/>
<g clip-path="url(#clip0_1_22903)">
<path d="M17.6693 8.2439C14.0748 8.2439 11.1504 11.1683 11.1504 14.7628C11.1504 19.2237 16.9842 25.7726 17.2326 26.0492C17.4659 26.309 17.8732 26.3085 18.1061 26.0492C18.3544 25.7726 24.1882 19.2237 24.1882 14.7628C24.1882 11.1683 21.2638 8.2439 17.6693 8.2439ZM17.6693 18.0426C15.8608 18.0426 14.3895 16.5713 14.3895 14.7628C14.3895 12.9543 15.8608 11.483 17.6693 11.483C19.4778 11.483 20.9491 12.9543 20.9491 14.7628C20.9491 16.5713 19.4778 18.0426 17.6693 18.0426Z" fill="white"/>
</g>
<defs>
<clipPath id="clip0_1_22903">
<rect width="18" height="18" fill="white" transform="translate(8.66919 8.2439)"/>
</clipPath>
</defs>
</svg>
