<svg width="126" height="25" viewBox="0 0 126 25" fill="none" xmlns="http://www.w3.org/2000/svg">
<g clip-path="url(#clip0_1_22947)">
<path d="M8.34404 14.8707C5.96028 14.1586 3.71088 13.4899 3.71088 11.3319C3.71088 9.49953 5.20182 8.40532 7.69393 8.40532C9.82197 8.40532 11.2262 9.2694 11.8763 10.9715L11.9023 11.0453L13.428 10.4418L13.4019 10.3723C12.6218 8.16216 10.6498 6.99414 7.68959 6.99414C4.16163 6.99414 1.9729 8.6919 1.9729 11.4318C1.9729 14.5233 4.80741 15.4048 7.5509 16.2558C10.0517 17.0331 12.4138 17.7669 12.4138 20.1159C12.4138 22.122 10.6628 23.3638 7.84996 23.3638C5.03712 23.3638 3.28181 22.2609 2.6707 20.2549L2.64469 20.1724L1.08008 20.8107L1.10175 20.8802C1.9599 23.3942 4.40867 24.8401 7.81528 24.8401C9.68328 24.8401 11.2609 24.4016 12.3748 23.5723C13.532 22.7169 14.1431 21.475 14.1431 19.9813C14.1431 16.5945 11.0572 15.6783 8.33538 14.8664L8.34404 14.8707Z" fill="white"/>
<path d="M30.9199 18.7698C30.1527 21.2622 28.0594 22.7515 25.3202 22.7515C21.5755 22.7515 18.8537 19.877 18.8537 15.917C18.8537 11.957 21.5582 9.08258 25.2855 9.08258C27.99 9.08258 30.0574 10.5849 30.8202 13.0947L30.8462 13.1728L32.9222 12.3392L32.9006 12.2697C31.9037 9.06087 28.8915 6.98535 25.2205 6.98535C22.8021 6.98535 20.596 7.88851 19.0011 9.52982C17.4148 11.1668 16.5393 13.4334 16.5393 15.9084C16.5393 18.3833 17.4191 20.6629 19.0228 22.2999C20.622 23.9325 22.8498 24.8314 25.2855 24.8314C28.9739 24.8314 31.9991 22.7558 32.9959 19.547L33.0176 19.4776L30.9415 18.6786L30.9155 18.7568L30.9199 18.7698Z" fill="white"/>
<path d="M49.739 10.4158C48.3868 8.29253 46.159 7.12451 43.4329 7.12451C41.0838 7.12451 38.9428 8.00596 37.4041 9.60385C35.8612 11.2061 35.0117 13.4379 35.0117 15.8869C35.0117 18.3358 35.8569 20.6545 37.3911 22.2914C38.9341 23.9371 41.0795 24.8403 43.4329 24.8403C46.1504 24.8403 48.3781 23.6288 49.739 21.4274V24.4842H52.4392V7.31991H49.739V10.4158ZM49.6437 15.8869C49.6437 19.6428 47.2252 22.2697 43.7579 22.2697C40.2907 22.2697 37.8722 19.5255 37.8722 15.8869C37.8722 12.2482 40.4033 9.53872 43.7579 9.53872C47.1125 9.53872 49.6437 12.1483 49.6437 15.8869Z" fill="white"/>
<path d="M60.2717 0.732666H56.7004V24.4883H60.2717V0.732666Z" fill="white"/>
<path d="M71.9252 6.93335C69.5544 6.93335 67.344 7.8669 65.6927 9.56032C64.0501 11.2494 63.1443 13.5073 63.1443 15.9215C63.1443 18.3357 64.0198 20.7065 65.6147 22.3304C67.266 24.0151 69.5371 24.9096 72.1809 24.9096C75.7349 24.9096 78.3353 23.6026 79.9173 21.0321L79.9563 20.967L76.5974 18.8133L76.5584 18.8871C75.7305 20.5111 74.4216 21.2362 72.3066 21.2362C69.7971 21.2362 67.9031 19.7252 67.344 17.2892H80.4937L80.5067 17.2241C80.5674 16.8854 80.6064 16.2645 80.6064 15.5654C80.6064 13.3596 79.7613 11.1843 78.2877 9.5994C77.1565 8.38361 75.1324 6.93335 71.9209 6.93335H71.9252ZM67.344 14.2628C67.8598 11.8269 69.6455 10.3158 72.0205 10.3158C74.3956 10.3158 76.0383 11.8269 76.5063 14.2628H67.344Z" fill="white"/>
<path d="M94.9741 1.94835L94.9568 1.89624H89.0147L81.4214 24.4882H86.3189L87.8965 19.6771H96.101L97.6786 24.4882H102.546L94.9741 1.94835ZM94.7618 15.6173H89.2358L91.9966 7.25438L94.7574 15.6173H94.7618Z" fill="white"/>
<path d="M104.656 24.4102H103.378L119.652 1.46655H120.896L104.656 24.4102Z" fill="#ED925F"/>
<path d="M104.674 24.4493H103.304L119.635 1.42749H120.974L104.678 24.4493H104.674ZM103.452 24.3711H104.635L120.823 1.50565H119.674L103.456 24.3755L103.452 24.3711Z" fill="#ED925F"/>
<path d="M109.602 24.4102H108.25L124.689 1.49695L125.924 1.46655L109.602 24.4102Z" fill="#1DA074"/>
<path d="M109.624 24.4493H108.176L108.22 24.3885L124.668 1.45788L126.002 1.42749L109.624 24.4536V24.4493ZM108.324 24.3711H109.585L125.851 1.50565L124.707 1.5317L108.324 24.3711Z" fill="#1DA074"/>
<path d="M104.059 1.38892L111.227 11.5755L113.841 7.89771L109.42 1.38892H104.059Z" fill="white"/>
<path d="M118.517 13.9031L115.878 17.6156L120.29 24.4544L120.311 24.4891H125.603L118.517 13.9031Z" fill="white"/>
</g>
<defs>
<clipPath id="clip0_1_22947">
<rect width="125.028" height="24.1545" fill="white" transform="translate(0.971436 0.755127)"/>
</clipPath>
</defs>
</svg>
