<svg width="78" height="67" viewBox="0 0 78 67" fill="none" xmlns="http://www.w3.org/2000/svg">
<path d="M26.4691 8.41883C25.7933 6.83688 24.8718 5.46996 23.6891 4.31806C22.5065 3.16615 21.1396 2.24463 19.5577 1.56885C17.9757 0.893068 16.317 0.555176 14.5507 0.555176H0.297852V48.2286H9.5745V29.8903H14.5507C16.317 29.8903 17.9911 29.5524 19.5577 28.8766C21.1396 28.2008 22.5065 27.2947 23.6891 26.1274C24.8718 24.9755 25.7933 23.6086 26.4691 22.0266C27.1448 20.4447 27.4827 18.7706 27.4827 17.0197V13.4258C27.4827 11.6749 27.1448 10.0008 26.4691 8.41883ZM18.2061 18.2177C18.16 19.2313 17.7914 20.0761 17.0695 20.7672C16.3477 21.4584 15.5183 21.8116 14.5507 21.8116H9.5745V8.63385H14.5507C15.5183 8.63385 16.363 8.9871 17.0695 9.70896C17.776 10.4308 18.16 11.2602 18.2061 12.2278V18.2177Z" fill="#00328B"/>
<path d="M31.8906 0.570435V22.1033C31.9367 22.088 41.2287 22.088 41.2287 22.088V0.585794H31.8906V0.570435ZM41.2287 21.2432H31.8906V35.3886V36.648L41.2287 26.6034V25.344V21.2432ZM41.2287 39.5969V34.6207L31.8906 45.3257V48.2438H57.8007V39.6122L41.2287 39.5969Z" fill="#00328B"/>
<path d="M62.2241 31.9023V48.2439H71.5008V22.9635L62.2241 31.9023ZM62.2241 10.2158V24.6376L67.999 18.7092C68.0758 18.6324 68.1219 18.5249 68.1219 18.402C68.1065 18.2945 68.0604 18.1716 67.9683 18.0948L65.4802 15.8985L71.5008 14.1169V10.2158H62.2241Z" fill="#00328B"/>
<path d="M77.8746 11.5525C77.7671 11.445 77.6135 11.4143 77.4753 11.4603L74.7414 12.2744L73.8967 12.5201L71.5007 13.2266L65.5723 14.9621L64.7276 15.2079L64.4818 15.2847C64.3436 15.3307 64.2207 15.4536 64.19 15.6072C64.1593 15.7608 64.2207 15.9144 64.3282 16.0219L67.0774 18.4485L62.2241 23.4248L58.2616 27.4948V11.2914C58.2616 11.061 58.0773 10.8767 57.8469 10.8767H48.3706C48.1402 10.8767 47.9559 11.061 47.9559 11.2914V22.5032C47.3722 22.0732 46.6811 21.8428 45.9592 21.8428H45.9285C44.9763 21.8428 44.1162 22.2421 43.4711 22.9179L41.8738 24.6535L41.2288 25.3446L41.0291 25.5596L32.4436 34.7902L31.8907 35.3892L31.5989 35.6964L28.2046 39.3517C28.051 39.5207 28.0664 39.7971 28.2353 39.9507C28.4043 40.1043 28.6807 40.0889 28.8343 39.92L31.8907 36.6332L41.2288 26.5886L44.1008 23.5016C44.577 22.9794 45.2374 22.7029 45.9439 22.6875C46.6504 22.7183 47.2955 22.964 47.7869 23.4708L55.2052 31.2116C55.282 31.2884 55.3895 31.3345 55.497 31.3345C55.6045 31.3345 55.7274 31.2884 55.8042 31.2116L58.1387 28.831C58.1387 28.831 58.1387 28.831 58.154 28.831L58.1694 28.8157L58.1848 28.8003L62.2395 24.6535L68.0143 18.725C68.0911 18.6482 68.1372 18.5407 68.1372 18.4178C68.1218 18.3103 68.0758 18.1874 67.9836 18.1107L65.4801 15.899L71.5007 14.1174L77.0606 12.474L74.4803 25.0221L72.3762 22.7029C72.2994 22.6108 72.1919 22.5647 72.069 22.5647C71.9615 22.5647 71.854 22.6108 71.7618 22.6875L71.4854 22.9486L62.2087 31.8874L56.526 37.3705C55.881 37.9848 54.8826 37.9848 54.2376 37.3705L46.2511 29.5068C46.1589 29.43 46.0514 29.3839 45.9285 29.3839C45.8057 29.3839 45.7135 29.4454 45.6213 29.5375L41.198 34.6212L31.86 45.3263L32.3668 44.8809C32.2132 45.0498 32.2286 45.3263 32.4129 45.4798C32.4897 45.5566 32.5972 45.5874 32.6893 45.5874C32.8122 45.5874 32.9351 45.5413 33.0119 45.4338L31.8753 46.6164L41.2134 35.9114L45.99 30.4437L53.654 37.9848C54.6216 38.937 56.1421 38.9524 57.1097 38.0002L62.2087 33.0854L71.4854 24.1466L72.0383 23.6244L74.4035 26.2354C74.5111 26.3429 74.6646 26.4043 74.8182 26.3583C74.9718 26.3122 75.0793 26.1893 75.11 26.0357L77.9821 11.9825C78.0282 11.7982 77.9821 11.66 77.8746 11.5525ZM55.497 30.3208L48.7852 23.3173V11.7061H57.4322V28.3395L55.497 30.3208Z" fill="#00328B"/>
<path d="M71.3318 4.70249L70.7174 4.61034C70.6713 4.21102 70.5792 3.82705 70.4256 3.45844L70.9171 3.08983C70.9785 3.04375 71.0092 2.98232 71.0246 2.90553C71.0399 2.84409 71.0092 2.75194 70.9785 2.70586L70.1645 1.63075C70.1184 1.56932 70.057 1.5386 69.9956 1.52324C69.9341 1.50789 69.842 1.5386 69.7959 1.56932L69.3044 1.93793C68.9972 1.69219 68.6594 1.49252 68.2907 1.33894L68.3829 0.72459C68.3983 0.586362 68.2907 0.448135 68.1525 0.432776L66.8163 0.24847C66.7395 0.233111 66.6781 0.263831 66.6166 0.294549C66.5706 0.325266 66.5245 0.417419 66.5091 0.463495L66.417 1.07784C66.0177 1.12392 65.6337 1.21607 65.2651 1.36966L64.8965 0.878177C64.8504 0.816742 64.789 0.786028 64.7122 0.770669C64.6507 0.75531 64.5586 0.786026 64.5125 0.816743L63.4374 1.63075C63.3913 1.66147 63.3452 1.75362 63.3299 1.81506C63.3299 1.87649 63.3452 1.96864 63.376 2.01472L63.7446 2.5062C63.4988 2.81337 63.2838 3.15127 63.1456 3.51987L62.5312 3.42772C62.3776 3.41236 62.2548 3.50451 62.2394 3.6581L62.0551 4.99431C62.0398 5.05574 62.0705 5.14789 62.1012 5.19397C62.1319 5.24005 62.2087 5.28612 62.2701 5.30148L62.8845 5.39363C62.9306 5.79296 63.0227 6.17692 63.1763 6.54553L62.6848 6.91415C62.562 7.0063 62.5466 7.17524 62.6234 7.28275L63.4374 8.35786C63.5295 8.46537 63.6831 8.49609 63.806 8.40394L64.2975 8.03533C64.6047 8.28107 64.9425 8.48073 65.3112 8.63432L65.219 9.24866C65.2036 9.38689 65.3112 9.52512 65.4494 9.54048L66.7856 9.72478H66.8163C66.8777 9.72478 66.9392 9.70943 66.9853 9.66335C67.0313 9.63263 67.0774 9.55584 67.0928 9.4944L67.1849 8.88006C67.5535 8.84934 67.9068 8.75718 68.26 8.61896C68.2907 8.6036 68.3061 8.6036 68.3368 8.58824L68.7054 9.07972C68.7515 9.14115 68.8129 9.17187 68.8897 9.18723C68.9512 9.20259 69.0433 9.17187 69.0894 9.14116L70.1645 8.32714C70.2874 8.25035 70.3027 8.0814 70.2106 7.95854L69.842 7.46705C70.0877 7.15988 70.2874 6.82199 70.441 6.45338L71.0553 6.54553C71.1935 6.56089 71.3318 6.46874 71.3625 6.31515L71.5468 4.97895C71.5775 4.85608 71.4854 4.73321 71.3318 4.70249ZM70.9632 6.11549L70.3949 6.0387C70.272 6.02334 70.1491 6.08478 70.1031 6.20764C69.9495 6.62233 69.7345 6.99094 69.4426 7.32883C69.3659 7.42098 69.3505 7.55921 69.4273 7.66672L69.7805 8.12748L68.9665 8.72647L68.6133 8.26571C68.5365 8.17356 68.3983 8.12748 68.2907 8.18892C68.2907 8.18892 68.2754 8.18892 68.2754 8.20428C67.8914 8.38858 67.4767 8.49609 67.0467 8.51145C66.9238 8.51145 66.8163 8.61896 66.8009 8.74183L66.7242 9.32546L65.7258 9.18723L65.8026 8.6036C65.818 8.48073 65.7566 8.35786 65.6337 8.31178C65.2344 8.1582 64.8504 7.94318 64.5279 7.65136C64.4357 7.57457 64.2975 7.55921 64.19 7.636L63.7292 7.98925L63.4988 7.68208L63.1302 7.1906L63.4988 6.91415L63.591 6.83735C63.6985 6.76056 63.7292 6.62233 63.6678 6.51482C63.591 6.36123 63.5449 6.20764 63.4988 6.05406C63.422 5.79296 63.376 5.53186 63.3606 5.2554C63.3606 5.13253 63.2531 5.02502 63.1302 5.00966L62.5466 4.93287L62.6848 3.93456L63.2685 4.01135C63.3913 4.02671 63.5142 3.96528 63.5603 3.84241C63.7139 3.42772 63.9289 3.05911 64.2207 2.72122C64.3128 2.62907 64.3128 2.49084 64.236 2.38333L63.8828 1.92257L64.6815 1.32358L65.0193 1.78434C65.0961 1.89185 65.2344 1.92257 65.3419 1.86113C65.7412 1.67683 66.1559 1.56932 66.6013 1.5386C66.7242 1.52324 66.8317 1.43109 66.847 1.30822L66.9392 0.72459L67.9375 0.862817L67.8453 1.44645C67.83 1.56932 67.8914 1.69219 68.0143 1.72291C68.429 1.87649 68.7976 2.09152 69.1355 2.38333C69.2276 2.46013 69.3659 2.47548 69.4734 2.39869L69.9495 2.04544L70.5485 2.85945L70.0877 3.2127C69.9802 3.28949 69.9495 3.42772 70.0109 3.53523C70.1952 3.93456 70.3027 4.34924 70.3334 4.79464C70.3334 4.91751 70.441 5.02502 70.5638 5.04038L71.1475 5.11718L70.9632 6.11549Z" fill="black"/>
<path d="M66.6165 6.37667C66.2172 6.31524 65.8793 6.10021 65.6796 5.79304C65.4953 5.51658 65.4032 5.17869 65.4492 4.82544C65.4953 4.45683 65.695 4.1343 65.9868 3.91928C66.2325 3.73498 66.509 3.64282 66.8162 3.64282C66.8776 3.64282 66.9544 3.64282 67.0158 3.65818C67.7684 3.76569 68.2906 4.45683 68.1831 5.20941C68.1524 5.42443 68.0756 5.62409 67.9527 5.79304C67.6609 6.20772 67.1541 6.43811 66.6165 6.37667Z" fill="#00328B"/>
<path d="M71.3318 4.70249L70.7174 4.61034C70.6713 4.21102 70.5792 3.82705 70.4256 3.45844L70.9171 3.08983C70.9785 3.04375 71.0092 2.98232 71.0246 2.90553C71.0399 2.84409 71.0092 2.75194 70.9785 2.70586L70.1645 1.63075C70.1184 1.56932 70.057 1.5386 69.9956 1.52324C69.9341 1.50789 69.842 1.5386 69.7959 1.56932L69.3044 1.93793C68.9972 1.69219 68.6594 1.49252 68.2907 1.33894L68.3829 0.72459C68.3983 0.586362 68.2907 0.448135 68.1525 0.432776L66.8163 0.24847C66.7395 0.233111 66.6781 0.263831 66.6166 0.294549C66.5706 0.325266 66.5245 0.417419 66.5091 0.463495L66.417 1.07784C66.0177 1.12392 65.6337 1.21607 65.2651 1.36966L64.8965 0.878177C64.8504 0.816742 64.789 0.786028 64.7122 0.770669C64.6507 0.75531 64.5586 0.786026 64.5125 0.816743L63.4374 1.63075C63.3913 1.66147 63.3452 1.75362 63.3299 1.81506C63.3299 1.87649 63.3452 1.96864 63.376 2.01472L63.7446 2.5062C63.4988 2.81337 63.2838 3.15127 63.1456 3.51987L62.5312 3.42772C62.3776 3.41236 62.2548 3.50451 62.2394 3.6581L62.0551 4.99431C62.0398 5.05574 62.0705 5.14789 62.1012 5.19397C62.1319 5.24005 62.2087 5.28612 62.2701 5.30148L62.8845 5.39363C62.9306 5.79296 63.0227 6.17692 63.1763 6.54553L62.6848 6.91415C62.562 7.0063 62.5466 7.17524 62.6234 7.28275L63.4374 8.35786C63.5295 8.46537 63.6831 8.49609 63.806 8.40394L64.2975 8.03533C64.6047 8.28107 64.9425 8.48073 65.3112 8.63432L65.219 9.24866C65.2036 9.38689 65.3112 9.52512 65.4494 9.54048L66.7856 9.72478H66.8163C66.8777 9.72478 66.9392 9.70943 66.9853 9.66335C67.0313 9.63263 67.0774 9.55584 67.0928 9.4944L67.1849 8.88006C67.5535 8.84934 67.9068 8.75718 68.26 8.61896C68.2907 8.6036 68.3061 8.6036 68.3368 8.58824L68.7054 9.07972C68.7515 9.14115 68.8129 9.17187 68.8897 9.18723C68.9512 9.20259 69.0433 9.17187 69.0894 9.14116L70.1645 8.32714C70.2874 8.25035 70.3027 8.0814 70.2106 7.95854L69.842 7.46705C70.0877 7.15988 70.2874 6.82199 70.441 6.45338L71.0553 6.54553C71.1935 6.56089 71.3318 6.46874 71.3625 6.31515L71.5468 4.97895C71.5775 4.85608 71.4854 4.73321 71.3318 4.70249ZM65.1729 5.7776C65.0193 5.47043 64.9579 5.11718 65.0193 4.74857C65.1576 3.76561 66.0791 3.07447 67.0774 3.2127C68.0604 3.35093 68.7515 4.27245 68.6133 5.2554C68.5672 5.56258 68.4443 5.83904 68.2754 6.06942C67.9375 6.51482 67.3999 6.80663 66.8163 6.80663C66.7242 6.80663 66.6474 6.80663 66.5552 6.79127C65.9409 6.71448 65.434 6.31515 65.1729 5.7776Z" fill="#00328B"/>
<path d="M28.5425 40.0736L41.367 26.6348L44.2391 23.5477C44.7152 23.0255 45.3756 22.749 46.0821 22.7337C46.7886 22.7644 47.4337 23.0101 47.9251 23.517L55.3434 31.2577C55.4202 31.3345 55.5277 31.3806 55.6352 31.3806C55.7427 31.3806 55.8656 31.3345 55.9424 31.2577L58.2769 28.8771C58.2769 28.8771 58.2769 28.8771 58.2923 28.8771L58.3076 28.8618L58.323 28.8464L62.3777 24.6996L68.1525 18.7711C68.2293 18.6943 68.2754 18.5868 68.2754 18.464C68.2601 18.3564 68.214 18.2336 68.1218 18.1568L65.603 15.9451L71.6236 14.1635L77.1835 12.5201L74.6032 25.0682L72.4991 22.749C72.4223 22.6569 72.3148 22.6108 72.1919 22.6108C72.0844 22.6108 71.9769 22.6569 71.8847 22.7337L71.6083 22.9948L62.3316 31.9335L56.6489 37.4166C56.0038 38.0309 55.0055 38.0309 54.3604 37.4166L46.3739 29.5529C46.2818 29.4761 46.1743 29.4301 46.0514 29.4301C45.9285 29.4301 45.8364 29.4915 45.7442 29.5836L41.3209 34.6674L32.0596 45.3417L28.5425 40.0736Z" fill="#FED107"/>
<path d="M7.67493 57.1459C7.63093 57.2339 7.57893 57.2959 7.51893 57.3319C7.46293 57.3679 7.39493 57.3859 7.31493 57.3859C7.23493 57.3859 7.14493 57.3559 7.04493 57.2959C6.94493 57.2319 6.82693 57.1619 6.69093 57.0859C6.55493 57.0099 6.39493 56.9419 6.21093 56.8819C6.03093 56.8179 5.81693 56.7859 5.56893 56.7859C5.34493 56.7859 5.14893 56.8139 4.98093 56.8699C4.81693 56.9219 4.67693 56.9959 4.56093 57.0919C4.44893 57.1879 4.36493 57.3039 4.30893 57.4399C4.25293 57.5719 4.22493 57.7179 4.22493 57.8779C4.22493 58.0819 4.28093 58.2519 4.39293 58.3879C4.50893 58.5239 4.66093 58.6399 4.84893 58.7359C5.03693 58.8319 5.25093 58.9179 5.49093 58.9939C5.73093 59.0699 5.97493 59.1519 6.22293 59.2399C6.47493 59.3239 6.72093 59.4239 6.96093 59.5399C7.20093 59.6519 7.41493 59.7959 7.60293 59.9719C7.79093 60.1439 7.94093 60.3559 8.05293 60.6079C8.16893 60.8599 8.22693 61.1659 8.22693 61.5259C8.22693 61.9179 8.15893 62.2859 8.02293 62.6299C7.89093 62.9699 7.69493 63.2679 7.43493 63.5239C7.17893 63.7759 6.86493 63.9759 6.49293 64.1239C6.12093 64.2679 5.69493 64.3399 5.21493 64.3399C4.93893 64.3399 4.66693 64.3119 4.39893 64.2559C4.13093 64.2039 3.87293 64.1279 3.62493 64.0279C3.38093 63.9279 3.15093 63.8079 2.93493 63.6679C2.72293 63.5279 2.53293 63.3719 2.36493 63.1999L2.83293 62.4259C2.87693 62.3699 2.92893 62.3239 2.98893 62.2879C3.05293 62.2479 3.12293 62.2279 3.19893 62.2279C3.29893 62.2279 3.40693 62.2699 3.52293 62.3539C3.63893 62.4339 3.77493 62.5239 3.93093 62.6239C4.09093 62.7239 4.27693 62.8159 4.48893 62.8999C4.70493 62.9799 4.96293 63.0199 5.26293 63.0199C5.72293 63.0199 6.07893 62.9119 6.33093 62.6959C6.58293 62.4759 6.70893 62.1619 6.70893 61.7539C6.70893 61.5259 6.65093 61.3399 6.53493 61.1959C6.42293 61.0519 6.27293 60.9319 6.08493 60.8359C5.89693 60.7359 5.68293 60.6519 5.44293 60.5839C5.20293 60.5159 4.95893 60.4419 4.71093 60.3619C4.46293 60.2819 4.21893 60.1859 3.97893 60.0739C3.73893 59.9619 3.52493 59.8159 3.33693 59.6359C3.14893 59.4559 2.99693 59.2319 2.88093 58.9639C2.76893 58.6919 2.71293 58.3579 2.71293 57.9619C2.71293 57.6459 2.77493 57.3379 2.89893 57.0379C3.02693 56.7379 3.21093 56.4719 3.45093 56.2399C3.69493 56.0079 3.99293 55.8219 4.34493 55.6819C4.69693 55.5419 5.09893 55.4719 5.55093 55.4719C6.06293 55.4719 6.53493 55.5519 6.96693 55.7119C7.39893 55.8719 7.76693 56.0959 8.07093 56.3839L7.67493 57.1459ZM18.5425 62.1979C18.6305 62.1979 18.7065 62.2319 18.7705 62.2999L19.4065 62.9899C19.0545 63.4259 18.6205 63.7599 18.1045 63.9919C17.5925 64.2239 16.9765 64.3399 16.2565 64.3399C15.6125 64.3399 15.0325 64.2299 14.5165 64.0099C14.0045 63.7899 13.5665 63.4839 13.2025 63.0919C12.8385 62.6999 12.5585 62.2319 12.3625 61.6879C12.1705 61.1439 12.0745 60.5499 12.0745 59.9059C12.0745 59.2539 12.1825 58.6579 12.3985 58.1179C12.6145 57.5739 12.9185 57.1059 13.3105 56.7139C13.7025 56.3219 14.1705 56.0179 14.7145 55.8019C15.2625 55.5819 15.8665 55.4719 16.5265 55.4719C17.1705 55.4719 17.7325 55.5759 18.2125 55.7839C18.6965 55.9879 19.1105 56.2599 19.4545 56.5999L18.9145 57.3499C18.8825 57.3979 18.8405 57.4399 18.7885 57.4759C18.7405 57.5119 18.6725 57.5299 18.5845 57.5299C18.4925 57.5299 18.3985 57.4939 18.3025 57.4219C18.2065 57.3499 18.0845 57.2719 17.9365 57.1879C17.7885 57.1039 17.6005 57.0259 17.3725 56.9539C17.1485 56.8819 16.8625 56.8459 16.5145 56.8459C16.1065 56.8459 15.7305 56.9179 15.3865 57.0619C15.0465 57.2019 14.7525 57.4039 14.5045 57.6679C14.2605 57.9319 14.0685 58.2539 13.9285 58.6339C13.7925 59.0099 13.7245 59.4339 13.7245 59.9059C13.7245 60.3939 13.7925 60.8279 13.9285 61.2079C14.0685 61.5879 14.2565 61.9079 14.4925 62.1679C14.7285 62.4279 15.0065 62.6279 15.3265 62.7679C15.6465 62.9039 15.9905 62.9719 16.3585 62.9719C16.5785 62.9719 16.7765 62.9599 16.9525 62.9359C17.1325 62.9119 17.2965 62.8739 17.4445 62.8219C17.5965 62.7699 17.7385 62.7039 17.8705 62.6239C18.0065 62.5399 18.1405 62.4379 18.2725 62.3179C18.3125 62.2819 18.3545 62.2539 18.3985 62.2339C18.4425 62.2099 18.4905 62.1979 18.5425 62.1979ZM31.0693 64.2439H29.4433V60.4519H25.3753V64.2439H23.7493V55.5679H25.3753V59.2999H29.4433V55.5679H31.0693V64.2439ZM41.4116 55.5679V56.8519H37.5656V59.2579H40.5956V60.4999H37.5656V62.9539H41.4116V64.2439H35.9396V55.5679H41.4116ZM50.2828 60.6439C50.3508 60.7719 50.4128 60.9059 50.4688 61.0459C50.5288 61.1819 50.5868 61.3199 50.6428 61.4599C50.6988 61.3159 50.7568 61.1739 50.8168 61.0339C50.8768 60.8939 50.9408 60.7599 51.0088 60.6319L53.5768 55.8259C53.6088 55.7659 53.6408 55.7179 53.6728 55.6819C53.7088 55.6459 53.7468 55.6199 53.7868 55.6039C53.8308 55.5879 53.8788 55.5779 53.9308 55.5739C53.9828 55.5699 54.0448 55.5679 54.1168 55.5679H55.3348V64.2439H53.9128V58.6399C53.9128 58.5359 53.9148 58.4219 53.9188 58.2979C53.9268 58.1739 53.9368 58.0479 53.9488 57.9199L51.3268 62.8399C51.2668 62.9519 51.1888 63.0399 51.0928 63.1039C50.9968 63.1639 50.8848 63.1939 50.7568 63.1939H50.5348C50.4068 63.1939 50.2948 63.1639 50.1988 63.1039C50.1028 63.0399 50.0248 62.9519 49.9648 62.8399L47.3068 57.9019C47.3228 58.0339 47.3328 58.1639 47.3368 58.2919C47.3448 58.4159 47.3488 58.5319 47.3488 58.6399V64.2439H45.9268V55.5679H47.1448C47.2168 55.5679 47.2788 55.5699 47.3308 55.5739C47.3828 55.5779 47.4288 55.5879 47.4688 55.6039C47.5128 55.6199 47.5528 55.6459 47.5888 55.6819C47.6248 55.7179 47.6588 55.7659 47.6908 55.8259L50.2828 60.6439ZM65.675 55.5679V56.8519H61.829V59.2579H64.859V60.4999H61.829V62.9539H65.675V64.2439H60.203V55.5679H65.675ZM74.8402 57.1459C74.7962 57.2339 74.7442 57.2959 74.6842 57.3319C74.6282 57.3679 74.5602 57.3859 74.4802 57.3859C74.4002 57.3859 74.3102 57.3559 74.2102 57.2959C74.1102 57.2319 73.9922 57.1619 73.8562 57.0859C73.7202 57.0099 73.5602 56.9419 73.3762 56.8819C73.1962 56.8179 72.9822 56.7859 72.7342 56.7859C72.5102 56.7859 72.3142 56.8139 72.1462 56.8699C71.9822 56.9219 71.8422 56.9959 71.7262 57.0919C71.6142 57.1879 71.5302 57.3039 71.4742 57.4399C71.4182 57.5719 71.3902 57.7179 71.3902 57.8779C71.3902 58.0819 71.4462 58.2519 71.5582 58.3879C71.6742 58.5239 71.8262 58.6399 72.0142 58.7359C72.2022 58.8319 72.4162 58.9179 72.6562 58.9939C72.8962 59.0699 73.1402 59.1519 73.3882 59.2399C73.6402 59.3239 73.8862 59.4239 74.1262 59.5399C74.3662 59.6519 74.5802 59.7959 74.7682 59.9719C74.9562 60.1439 75.1062 60.3559 75.2182 60.6079C75.3342 60.8599 75.3922 61.1659 75.3922 61.5259C75.3922 61.9179 75.3242 62.2859 75.1882 62.6299C75.0562 62.9699 74.8602 63.2679 74.6002 63.5239C74.3442 63.7759 74.0302 63.9759 73.6582 64.1239C73.2862 64.2679 72.8602 64.3399 72.3802 64.3399C72.1042 64.3399 71.8322 64.3119 71.5642 64.2559C71.2962 64.2039 71.0382 64.1279 70.7902 64.0279C70.5462 63.9279 70.3162 63.8079 70.1002 63.6679C69.8882 63.5279 69.6982 63.3719 69.5302 63.1999L69.9982 62.4259C70.0422 62.3699 70.0942 62.3239 70.1542 62.2879C70.2182 62.2479 70.2882 62.2279 70.3642 62.2279C70.4642 62.2279 70.5722 62.2699 70.6882 62.3539C70.8042 62.4339 70.9402 62.5239 71.0962 62.6239C71.2562 62.7239 71.4422 62.8159 71.6542 62.8999C71.8702 62.9799 72.1282 63.0199 72.4282 63.0199C72.8882 63.0199 73.2442 62.9119 73.4962 62.6959C73.7482 62.4759 73.8742 62.1619 73.8742 61.7539C73.8742 61.5259 73.8162 61.3399 73.7002 61.1959C73.5882 61.0519 73.4382 60.9319 73.2502 60.8359C73.0622 60.7359 72.8482 60.6519 72.6082 60.5839C72.3682 60.5159 72.1242 60.4419 71.8762 60.3619C71.6282 60.2819 71.3842 60.1859 71.1442 60.0739C70.9042 59.9619 70.6902 59.8159 70.5022 59.6359C70.3142 59.4559 70.1622 59.2319 70.0462 58.9639C69.9342 58.6919 69.8782 58.3579 69.8782 57.9619C69.8782 57.6459 69.9402 57.3379 70.0642 57.0379C70.1922 56.7379 70.3762 56.4719 70.6162 56.2399C70.8602 56.0079 71.1582 55.8219 71.5102 55.6819C71.8622 55.5419 72.2642 55.4719 72.7162 55.4719C73.2282 55.4719 73.7002 55.5519 74.1322 55.7119C74.5642 55.8719 74.9322 56.0959 75.2362 56.3839L74.8402 57.1459Z" fill="#000088"/>
</svg>
