<svg width="18" height="19" viewBox="0 0 18 19" fill="none" xmlns="http://www.w3.org/2000/svg">
<g clip-path="url(#clip0_1_80571)">
<path d="M0.317249 8.15118L17.2625 0.788073C17.3596 0.745889 17.4671 0.733896 17.5711 0.753653C17.6751 0.773409 17.7707 0.824002 17.8456 0.89885C17.9204 0.973697 17.971 1.06934 17.9907 1.17332C18.0105 1.27731 17.9985 1.38484 17.9563 1.48192L10.5932 18.4272C10.5502 18.5261 10.4779 18.6094 10.3861 18.666C10.2943 18.7226 10.1874 18.7496 10.0797 18.7435C9.97208 18.7374 9.86888 18.6985 9.78404 18.6319C9.6992 18.5653 9.63681 18.4744 9.60527 18.3713L8.02633 13.2087C7.84711 12.6212 7.52622 12.0868 7.09191 11.6525C6.65761 11.2182 6.1232 10.8973 5.53573 10.7181L0.373182 9.13914C0.270056 9.10761 0.179077 9.04522 0.112509 8.96038C0.0459404 8.87554 0.0069809 8.77232 0.000886917 8.66466C-0.00520897 8.55699 0.0218506 8.45004 0.0784187 8.35823C0.134985 8.26642 0.218342 8.19416 0.317249 8.15118Z" fill="#00338C"/>
</g>
<defs>
<clipPath id="clip0_1_80571">
<rect width="18" height="18" fill="white" transform="matrix(-1 0 0 1 18 0.744385)"/>
</clipPath>
</defs>
</svg>
