<svg id="Layer_1" data-name="Layer 1" xmlns="http://www.w3.org/2000/svg" viewBox="0 0 125.53 125.53"><defs><style>.cls-1{fill:#375df2;}</style></defs><path class="cls-1" d="M124.66,62.62c.2,34.06-27.59,61.94-61.82,62a61.92,61.92,0,0,1-62-61.75C.67,28.86,28.46,1,62.7.87A61.92,61.92,0,0,1,124.66,62.62Zm-113.37.26A51.48,51.48,0,1,0,62.71,11.29,51.51,51.51,0,0,0,11.29,62.88Z"/><path class="cls-1" d="M59,46.4q-12.71,12.7-25.4,25.43a5.1,5.1,0,0,0-.14,7.44c2.11,2.09,5.22,2,7.52-.28q10.51-10.47,21-21c.71-.72,1.06-.7,1.76,0,6.82,6.88,13.69,13.72,20.54,20.57,2.65,2.65,5.71,2.91,8,.68s2-5.31-.66-8L66.93,46.73a5.52,5.52,0,0,0-4.09-2A5.12,5.12,0,0,0,59,46.4Z"/></svg>