<svg id="Layer_1" data-name="Layer 1" xmlns="http://www.w3.org/2000/svg" viewBox="0 0 125.53 125.53"><defs><style>.cls-1{fill:#375df2;}</style></defs><path class="cls-1" d="M124.66,62.91C124.86,28.85,97.07,1,62.84.87a61.92,61.92,0,0,0-62,61.75c-.2,34.05,27.59,61.94,61.83,62A61.92,61.92,0,0,0,124.66,62.91ZM11.29,62.65a51.48,51.48,0,1,1,51.42,51.59A51.51,51.51,0,0,1,11.29,62.65Z"/><path class="cls-1" d="M59,79.13Q46.24,66.43,33.55,53.7a5.1,5.1,0,0,1-.14-7.44c2.11-2.09,5.22-2,7.52.28q10.51,10.47,21,21c.71.72,1.06.7,1.76,0C70.48,60.64,77.35,53.8,84.2,47c2.65-2.65,5.71-2.91,8-.68s2,5.31-.66,8L66.93,78.8a5.52,5.52,0,0,1-4.09,2A5.12,5.12,0,0,1,59,79.13Z"/></svg>