<svg width="75" height="76" viewBox="0 0 75 76" fill="none" xmlns="http://www.w3.org/2000/svg">
<g clip-path="url(#clip0_1_80898)">
<path d="M48.308 51.1328C45.9903 54.8091 41.9236 57.1035 37.4959 57.1035C33.0686 57.1035 29.0018 54.809 26.6841 51.1328H22.8008L23.3207 51.7532C26.0697 56.9947 31.5228 60.3262 37.4961 60.3262C43.4694 60.3262 48.9226 56.9947 51.6715 51.7532L52.5594 51.1328H48.308Z" fill="#FEBF00"/>
<path d="M61.9256 52.3072C62.0232 52.0085 62.2615 51.7746 62.5633 51.6814C62.8879 51.5812 63.1583 51.3848 63.3546 51.1328H57.6673L58.7113 51.7532C58.3839 52.6888 57.9921 53.6072 57.5438 54.4899C56.7186 56.1149 57.0288 58.0713 58.3157 59.3584L58.3158 59.3585L59.6403 60.6829C59.8242 60.8667 59.9254 61.1112 59.9254 61.3712C59.9254 61.6312 59.8242 61.8758 59.6402 62.0597L55.2328 66.4671C55.0489 66.6509 54.8044 66.7522 54.5444 66.7522C54.2846 66.7522 54.0399 66.6509 53.8561 66.4669L52.5316 65.1424C51.2443 63.8557 49.2877 63.5456 47.6633 64.3706C46.6407 64.8899 45.5699 65.3333 44.4807 65.6888C42.7504 66.2535 41.5877 67.8559 41.5877 69.676V71.5486C41.5877 72.0855 41.1511 72.5222 40.6142 72.5222H34.3813C33.8444 72.5222 33.4078 72.0855 33.4078 71.5486V69.676C33.4078 67.8559 32.2451 66.2537 30.515 65.689C29.4253 65.3332 28.3543 64.8897 27.3325 64.3708C26.726 64.0627 26.0736 63.9128 25.4267 63.9128C24.3405 63.9128 23.2703 64.3359 22.4635 65.1427L21.1393 66.4669C20.7594 66.8468 20.1418 66.8465 19.7625 66.4669L15.355 62.0598C14.9755 61.6801 14.9753 61.0623 15.355 60.6829L16.6794 59.3585C17.9664 58.0713 18.2767 56.1147 17.4514 54.4899C17.0031 53.6074 16.6114 52.6886 16.2839 51.7532L17.3074 51.1328H11.6406C11.8369 51.3848 12.1073 51.5812 12.4318 51.6814C12.7337 51.7747 12.9719 52.0085 13.0694 52.3073C13.4762 53.5539 13.9838 54.7791 14.5779 55.9491C14.7701 56.3271 14.6986 56.7815 14.4005 57.0796L13.0762 58.404C11.4402 60.0401 11.4401 62.7021 13.0762 64.3385L17.4836 68.7458C18.2762 69.5383 19.3299 69.975 20.4509 69.975C21.5717 69.975 22.6255 69.5384 23.4181 68.7457L24.7422 67.4216C25.0403 67.1235 25.4947 67.052 25.8732 67.2442C27.0426 67.838 28.2679 68.3456 29.5149 68.7527C29.9156 68.8836 30.185 69.2547 30.185 69.6761V71.5488C30.185 73.8626 32.0674 75.745 34.3812 75.745H40.6141C42.9279 75.745 44.8103 73.8625 44.8103 71.5488V69.6761C44.8103 69.2545 45.0796 68.8835 45.4804 68.7525C46.7267 68.3459 47.9519 67.8385 49.1222 67.2442C49.5001 67.052 49.9546 67.123 50.2527 67.4214L51.5771 68.7458C52.3697 69.5383 53.4234 69.975 54.5443 69.975C55.6652 69.975 56.719 69.5384 57.5115 68.7458L61.9189 64.3385C62.7114 63.5459 63.148 62.4922 63.148 61.3712C63.148 60.2501 62.7115 59.1965 61.9189 58.404L60.5947 57.0798C60.2964 56.7815 60.2252 56.3272 60.4171 55.9489C61.0113 54.7791 61.5188 53.5539 61.9256 52.3072Z" fill="#FEBF00"/>
<path d="M68.5711 48.5302H63.3315V6.17217C63.3315 4.79785 62.648 3.52329 61.5032 2.76304C60.3583 2.00264 58.9185 1.86699 57.6517 2.3999L44.619 7.88354C43.097 8.52397 42.1135 10.0046 42.1135 11.656V14.2326H37.7785V4.84736C37.7786 2.58506 35.938 0.744629 33.6759 0.744629H15.7701C13.5078 0.744629 11.6673 2.58506 11.6673 4.84736V48.5302H6.42773C5.53784 48.5302 4.81641 49.2516 4.81641 50.1415C4.81641 51.0314 5.53784 51.7528 6.42773 51.7528H68.5709C69.4608 51.7528 70.1823 51.0314 70.1823 50.1415C70.1823 49.2516 69.461 48.5302 68.5711 48.5302ZM45.3363 11.6558C45.3363 11.3048 45.5454 10.99 45.8689 10.8538L58.9017 5.37002C59.2895 5.20698 59.6035 5.36958 59.7204 5.44722C59.8373 5.52485 60.109 5.75073 60.109 6.17188V48.5299H52.8543V18.3248C52.8543 16.0682 51.0185 14.2323 48.7619 14.2323H45.3363V11.6558ZM37.7786 37.5099H49.6315V48.53H37.7786V37.5099ZM48.7616 17.4551C49.2412 17.4551 49.6314 17.8454 49.6314 18.325V34.2872H37.7785V17.4551H48.7616ZM14.89 48.5302V4.84736C14.89 4.36221 15.2848 3.96729 15.7701 3.96729H33.6759C34.161 3.96729 34.556 4.36206 34.556 4.84736V48.5302H14.89Z" fill="white"/>
<path d="M21.0801 8.81689C20.1902 8.81689 19.4688 9.53833 19.4688 10.4282V41.7251C19.4688 42.6149 20.1902 43.3364 21.0801 43.3364C21.97 43.3364 22.6914 42.6149 22.6914 41.7251V10.4282C22.6914 9.53833 21.97 8.81689 21.0801 8.81689Z" fill="white"/>
<path d="M28.3652 8.81689C27.4753 8.81689 26.7539 9.53833 26.7539 10.4282V41.7251C26.7539 42.6149 27.4753 43.3364 28.3652 43.3364C29.2551 43.3364 29.9766 42.6149 29.9766 41.7251V10.4282C29.9766 9.53833 29.2551 8.81689 28.3652 8.81689Z" fill="white"/>
</g>
<defs>
<clipPath id="clip0_1_80898">
<rect width="75" height="75" fill="white" transform="translate(0 0.744629)"/>
</clipPath>
</defs>
</svg>
