<svg width="54" height="53" viewBox="0 0 54 53" fill="none" xmlns="http://www.w3.org/2000/svg">
<path d="M30.1845 43.2346H23.8086C23.1679 43.2346 22.6484 43.7541 22.6484 44.3948V50.3293C22.6484 50.97 24.9688 50.97 24.9688 50.3293V45.5549H29.0243V50.3293C29.0243 50.97 31.3447 50.97 31.3447 50.3293V44.3948C31.3447 43.7539 30.8252 43.2346 30.1845 43.2346Z" fill="#FEBF00"/>
<path d="M17.4336 35.801C16.7929 35.801 16.2734 36.3205 16.2734 36.9612V46.7757C16.2734 47.4164 16.7929 47.9358 17.4336 47.9358C18.0743 47.9358 18.5938 47.4164 18.5938 46.7757V36.9612C18.5938 36.3205 18.0743 35.801 17.4336 35.801Z" fill="#FEBF00"/>
<path d="M23.8086 41.0238C24.4493 41.0238 24.9688 40.5044 24.9688 39.8637V36.9612C24.9688 36.3205 24.4493 35.801 23.8086 35.801C23.1679 35.801 22.6484 36.3205 22.6484 36.9612V39.8637C22.6484 40.5044 23.1679 41.0238 23.8086 41.0238Z" fill="#FEBF00"/>
<path d="M30.1836 35.801C29.5429 35.801 29.0234 36.3205 29.0234 36.9612V39.8637C29.0234 40.5044 29.5429 41.0238 30.1836 41.0238C30.8243 41.0238 31.3438 40.5044 31.3438 39.8637V36.9612C31.3438 36.3205 30.8243 35.801 30.1836 35.801Z" fill="#FEBF00"/>
<path d="M36.5586 35.801C35.9179 35.801 35.3984 36.3205 35.3984 36.9612V46.7757C35.3984 47.4164 35.9179 47.9358 36.5586 47.9358C37.1993 47.9358 37.7188 47.4164 37.7188 46.7757V36.9612C37.7188 36.3205 37.1993 35.801 36.5586 35.801Z" fill="#FEBF00"/>
<path d="M54 37.3597C54 36.7189 53.4806 36.1995 52.8398 36.1995H44.0999V32.7589H44.2157C44.8564 32.7589 45.3758 32.2395 45.3758 31.5987V26.3433C45.3758 25.7026 44.8564 25.1832 44.2157 25.1832H39.8185V22.3931H40.0492C40.6899 22.3931 41.2094 21.8737 41.2094 21.233C41.2094 20.5922 40.6899 20.0728 40.0492 20.0728H39.7653C39.2116 14.0549 34.3949 9.25202 28.37 8.71867V7.7896H33.4084C34.0491 7.7896 34.5685 7.27016 34.5685 6.62944V1.34503C34.5685 0.704309 34.0491 0.184875 33.4084 0.184875H27.2099C26.5692 0.184875 26.0497 0.704309 26.0497 1.34503V8.71867C20.0248 9.25202 15.2082 14.0549 14.6545 20.0728H13.951C13.3103 20.0728 12.7908 20.5922 12.7908 21.233C12.7908 21.8737 13.3103 22.3931 13.951 22.3931H14.6013V25.1832H9.78444C9.14372 25.1832 8.62429 25.7026 8.62429 26.3433V31.5987C8.62429 32.2395 9.14372 32.7589 9.78444 32.7589H9.90025V36.1995H1.16016C0.519434 36.1995 0 36.7189 0 37.3597C0 37.8255 0.274641 38.2271 0.670676 38.4117V51.143C0.670676 51.7837 1.19011 52.3031 1.83083 52.3031H52.1691C52.8098 52.3031 53.3292 51.7837 53.3292 51.143V38.4117C53.7254 38.2271 54 37.8254 54 37.3597ZM28.3699 2.50519H32.2481V5.46928H28.3699V2.50519ZM27.1674 10.9897H27.2523C32.5096 10.9897 36.8547 14.9689 37.4328 20.0728H16.9869C17.565 14.9689 21.9101 10.9897 27.1674 10.9897ZM16.9215 22.3931H37.498V25.1832H16.9215V22.3931ZM10.9446 27.5034H43.0555V30.4385H10.9446V27.5034ZM41.7795 32.7589V49.9829H12.2205V32.7589H41.7795ZM2.99099 38.5198H9.90014V49.9829H2.99099V38.5198ZM44.0999 49.9828V38.5198H51.009V49.9829L44.0999 49.9828Z" fill="white"/>
<path d="M47.9972 41.0315H47.1133C46.4726 41.0315 45.9531 41.5509 45.9531 42.1917C45.9531 42.8324 46.4726 43.3518 47.1133 43.3518H47.9972C48.6379 43.3518 49.1574 42.8324 49.1574 42.1917C49.1574 41.5509 48.6379 41.0315 47.9972 41.0315Z" fill="white"/>
<path d="M47.9972 45.1506H47.1133C46.4726 45.1506 45.9531 45.6701 45.9531 46.3108C45.9531 46.9515 46.4726 47.4709 47.1133 47.4709H47.9972C48.6379 47.4709 49.1574 46.9515 49.1574 46.3108C49.1574 45.6701 48.6379 45.1506 47.9972 45.1506Z" fill="white"/>
<path d="M6.00391 43.3518H6.88784C7.52856 43.3518 8.048 42.8324 8.048 42.1917C8.048 41.5509 7.52856 41.0315 6.88784 41.0315H6.00391C5.36318 41.0315 4.84375 41.5509 4.84375 42.1917C4.84375 42.8324 5.36318 43.3518 6.00391 43.3518Z" fill="white"/>
<path d="M6.88784 45.1506H6.00391C5.36318 45.1506 4.84375 45.6701 4.84375 46.3108C4.84375 46.9515 5.36318 47.4709 6.00391 47.4709H6.88784C7.52856 47.4709 8.048 46.9515 8.048 46.3108C8.048 45.6701 7.52856 45.1506 6.88784 45.1506Z" fill="white"/>
</svg>
