<svg width="54" height="55" viewBox="0 0 54 55" fill="none" xmlns="http://www.w3.org/2000/svg">
<path d="M53.9677 37.1841C53.8248 36.0105 53.2232 34.9758 52.2739 34.2711C50.4903 32.9468 48.0104 33.1802 46.5055 34.814L40.1871 41.6598H40.0728C40.4168 41.0295 40.6125 40.3072 40.6125 39.5399C40.6125 37.0916 38.6205 35.0996 36.1722 35.0996H29.4509C28.9445 35.0996 28.4339 34.9868 27.9747 34.7732L25.1933 33.4801C23.9056 32.8813 22.5353 32.5179 21.1203 32.3997C18.1864 32.1555 15.1998 33.1564 12.9263 35.1478L10.69 37.1069L3.55889 37.0466C3.55077 37.0466 3.54265 37.0465 3.53442 37.0465C2.59471 37.0465 1.711 37.4106 1.0437 38.0736C0.370718 38.7424 0 39.6333 0 40.582V48.4316C0 50.3809 1.58602 51.9669 3.53537 51.9669H39.667C42.1379 51.9669 44.4433 50.8637 45.9935 48.94L53.0226 40.4185C53.7751 39.5064 54.1107 38.3577 53.9677 37.1841ZM51.233 38.942L44.1995 47.4687C44.1964 47.4724 44.1933 47.4761 44.1904 47.4799C43.0829 48.8569 41.4342 49.6466 39.6671 49.6466H3.53537C2.86534 49.6466 2.32028 49.1015 2.32028 48.4316V40.582C2.32028 40.2559 2.44769 39.9498 2.67908 39.72C2.90847 39.4921 3.21222 39.3668 3.53326 39.3668C3.536 39.3668 3.53885 39.3669 3.54159 39.367L11.1125 39.431C11.3992 39.4311 11.6727 39.3311 11.8868 39.1435L14.4555 36.8932C16.2582 35.3141 18.6169 34.5185 20.9274 34.7119C22.0696 34.8074 23.1758 35.1009 24.2154 35.5842L26.9968 36.8773C27.7604 37.2323 28.6092 37.42 29.4511 37.42H36.1724C37.3414 37.42 38.2924 38.3711 38.2924 39.54C38.2924 40.7089 37.3414 41.6599 36.1724 41.6599H23.0973C22.4566 41.6599 21.9372 42.1793 21.9372 42.8201C21.9372 43.4608 22.4566 43.9802 23.0973 43.9802H40.6937C41.0167 43.9802 41.325 43.8456 41.5446 43.6086L48.212 36.3863C48.9109 35.6277 50.0627 35.5192 50.8907 36.1342C51.3244 36.4562 51.5991 36.9287 51.6644 37.4647C51.7297 38.0008 51.5765 38.5255 51.233 38.942Z" fill="#00338C"/>
<path d="M30.9704 26.373H23.2167C22.576 26.373 22.0565 25.8536 22.0565 25.2129V19.9845H16.8281C16.1874 19.9845 15.668 19.465 15.668 18.8243V11.0706C15.668 10.4299 16.1874 9.91043 16.8281 9.91043H22.0565V4.68199C22.0565 4.04128 22.576 3.52185 23.2167 3.52185H30.9704C31.6111 3.52185 32.1306 4.04128 32.1306 4.68199V9.91043H37.3589C37.9996 9.91043 38.519 10.4299 38.519 11.0706V18.8243C38.519 19.465 37.9996 19.9845 37.3589 19.9845H32.1306V25.2129C32.1306 25.8536 31.6111 26.373 30.9704 26.373ZM24.3768 24.0527H29.8103V18.8243C29.8103 18.1836 30.3297 17.6642 30.9704 17.6642H36.1988V12.2307H30.9704C30.3297 12.2307 29.8103 11.7113 29.8103 11.0706V5.84213H24.3768V11.0706C24.3768 11.7113 23.8574 12.2307 23.2167 12.2307H17.9882V17.6642H23.2167C23.8574 17.6642 24.3768 18.1836 24.3768 18.8243V24.0527Z" fill="#FEBF00"/>
</svg>
