<svg width="54" height="55" viewBox="0 0 54 55" fill="none" xmlns="http://www.w3.org/2000/svg">
<path d="M16.9922 26.717H14.6719V43.1702H16.9922V26.717Z" fill="#FEBF00"/>
<path d="M10.4688 26.717H8.14844V43.1702H10.4688V26.717Z" fill="#FEBF00"/>
<path d="M39.3203 26.717H37V43.1702H39.3203V26.717Z" fill="#FEBF00"/>
<path d="M45.8438 26.717H43.5234V43.1702H45.8438V26.717Z" fill="#FEBF00"/>
<path d="M28.2109 36.0442H25.8906V43.1699H28.2109V36.0442Z" fill="#FEBF00"/>
<path d="M26.9961 5.51782C20.4244 5.51782 15.0781 10.8641 15.0781 17.4358H17.3984C17.3984 13.2329 20.1142 9.65262 23.8829 8.35672C22.8786 10.6891 22.403 14.1346 22.403 17.4358H24.7233C24.7233 14.7877 25.0385 12.2836 25.6109 10.3849C26.2092 8.39986 26.8457 7.87748 26.9961 7.83887C27.1466 7.87737 27.783 8.39976 28.3813 10.3849C28.9536 12.2835 29.2688 14.7877 29.2688 17.4358H31.5892C31.5892 14.1346 31.1136 10.6891 30.1093 8.35672C33.878 9.65262 36.5938 13.2329 36.5938 17.4358H38.9141C38.9141 10.8641 33.5677 5.51782 26.9961 5.51782Z" fill="#FEBF00"/>
<path d="M52.8398 27.8772C53.4806 27.8772 54 27.3578 54 26.717V22.0764C54 21.4357 53.4806 20.9163 52.8398 20.9163H41.6602V17.4358C41.6602 16.7951 41.1407 16.2756 40.5 16.2756H13.5C12.8593 16.2756 12.3398 16.7951 12.3398 17.4358V20.9163H1.16016C0.519434 20.9163 0 21.4357 0 22.0764V26.717C0 27.3578 0.519434 27.8772 1.16016 27.8772H1.62601V42.01H1.16016C0.519434 42.01 0 42.5294 0 43.1702V47.8108C0 48.4515 0.519434 48.9709 1.16016 48.9709H52.8398C53.4806 48.9709 54 48.4515 54 47.8108V43.1702C54 42.5294 53.4806 42.01 52.8398 42.01H52.374V27.8772H52.8398ZM14.6602 18.5959H39.3398V20.9163H14.6602V18.5959ZM2.32031 23.2366H51.6797V25.5569H2.32031V23.2366ZM23.5195 42.01V37.2046H30.4805V42.01H23.5195ZM30.4805 34.8843H23.5195V27.8772H30.4805V34.8843ZM3.94632 27.8772H21.1992V42.01H3.94632V27.8772ZM51.6797 46.6506H2.32031V44.3303H51.6797V46.6506ZM50.0537 42.01H32.8008V27.8772H50.0537V42.01Z" fill="white"/>
</svg>
