<svg width="23" height="18" viewBox="0 0 23 18" fill="none" xmlns="http://www.w3.org/2000/svg">
<path fill-rule="evenodd" clip-rule="evenodd" d="M2.61404 1.35518L9.09779 7.84174C10.5119 9.25315 12.8235 9.25437 14.2388 7.84174L20.7226 1.35518C20.7379 1.33994 20.7497 1.32151 20.7571 1.3012C20.7645 1.28089 20.7674 1.25921 20.7655 1.23767C20.7635 1.21614 20.7569 1.19529 20.7461 1.1766C20.7352 1.15791 20.7204 1.14183 20.7026 1.12952C20.0413 0.66832 19.2367 0.394897 18.3699 0.394897H4.96669C4.09993 0.394897 3.29532 0.668366 2.63401 1.12952C2.61624 1.14183 2.60139 1.15791 2.59053 1.1766C2.57966 1.19529 2.57304 1.21614 2.57114 1.23767C2.56923 1.25921 2.57209 1.28089 2.5795 1.3012C2.58691 1.32151 2.5987 1.33994 2.61404 1.35518ZM0.881349 4.48019C0.880821 3.82112 1.04099 3.17186 1.34799 2.58865C1.35871 2.56809 1.37412 2.55035 1.39299 2.53686C1.41185 2.52338 1.43363 2.51454 1.45655 2.51106C1.47948 2.50758 1.5029 2.50956 1.52491 2.51683C1.54693 2.52411 1.56692 2.53648 1.58326 2.55293L7.98493 8.9546C10.0121 10.9848 13.3233 10.9859 15.3517 8.9546L21.7534 2.55293C21.7697 2.53648 21.7897 2.52411 21.8117 2.51683C21.8337 2.50956 21.8572 2.50758 21.8801 2.51106C21.903 2.51454 21.9248 2.52338 21.9436 2.53686C21.9625 2.55035 21.9779 2.56809 21.9886 2.58865C22.2956 3.17187 22.4558 3.82112 22.4553 4.48019V13.0085C22.4553 15.2629 20.6215 17.0938 18.3699 17.0938H4.96669C2.71519 17.0938 0.881349 15.2629 0.881349 13.0085V4.48019Z" fill="white"/>
</svg>
