<svg width="41" height="41" viewBox="0 0 41 41" fill="none" xmlns="http://www.w3.org/2000/svg">
<rect x="0.666504" y="0.744385" width="40" height="40" rx="4" fill="#00338C"/>
<path fill-rule="evenodd" clip-rule="evenodd" d="M11.614 13.3552L18.0978 19.8417C19.5119 21.2531 21.8235 21.2544 23.2388 19.8417L29.7226 13.3552C29.7379 13.3399 29.7497 13.3215 29.7571 13.3012C29.7645 13.2809 29.7674 13.2592 29.7655 13.2377C29.7635 13.2161 29.7569 13.1953 29.7461 13.1766C29.7352 13.1579 29.7204 13.1418 29.7026 13.1295C29.0413 12.6683 28.2367 12.3949 27.3699 12.3949H13.9667C13.0999 12.3949 12.2953 12.6684 11.634 13.1295C11.6162 13.1418 11.6014 13.1579 11.5905 13.1766C11.5797 13.1953 11.573 13.2161 11.5711 13.2377C11.5692 13.2592 11.5721 13.2809 11.5795 13.3012C11.5869 13.3215 11.5987 13.3399 11.614 13.3552ZM9.88135 16.4802C9.88082 15.8211 10.041 15.1719 10.348 14.5886C10.3587 14.5681 10.3741 14.5503 10.393 14.5369C10.4119 14.5234 10.4336 14.5145 10.4566 14.5111C10.4795 14.5076 10.5029 14.5096 10.5249 14.5168C10.5469 14.5241 10.5669 14.5365 10.5833 14.5529L16.9849 20.9546C19.0121 22.9848 22.3233 22.9859 24.3517 20.9546L30.7534 14.5529C30.7697 14.5365 30.7897 14.5241 30.8117 14.5168C30.8337 14.5096 30.8572 14.5076 30.8801 14.5111C30.903 14.5145 30.9248 14.5234 30.9436 14.5369C30.9625 14.5503 30.9779 14.5681 30.9886 14.5886C31.2956 15.1719 31.4558 15.8211 31.4553 16.4802V25.0085C31.4553 27.2629 29.6215 29.0938 27.3699 29.0938H13.9667C11.7152 29.0938 9.88135 27.2629 9.88135 25.0085V16.4802Z" fill="white"/>
</svg>
