<svg width="41" height="41" viewBox="0 0 41 41" fill="none" xmlns="http://www.w3.org/2000/svg">
<rect x="0.666504" y="0.744385" width="40" height="40" rx="4" fill="#00338C"/>
<path d="M32.6665 32.7444V23.9544C32.6665 19.6344 31.7365 16.3344 26.6965 16.3344C24.2665 16.3344 22.6465 17.6544 21.9865 18.9144H21.9265V16.7244H17.1565V32.7444H22.1365V24.7944C22.1365 22.6944 22.5265 20.6844 25.1065 20.6844C27.6565 20.6844 27.6865 23.0544 27.6865 24.9144V32.7144H32.6665V32.7444ZM9.0565 16.7244H14.0365V32.7444H9.0565V16.7244ZM11.5465 8.74438C9.9565 8.74438 8.6665 10.0344 8.6665 11.6244C8.6665 13.2144 9.9565 14.5344 11.5465 14.5344C13.1365 14.5344 14.4265 13.2144 14.4265 11.6244C14.4265 10.0344 13.1365 8.74438 11.5465 8.74438Z" fill="white"/>
</svg>
