<svg width="25" height="25" viewBox="0 0 25 25" fill="none" xmlns="http://www.w3.org/2000/svg">
<path d="M24.6665 24.7444V15.9544C24.6665 11.6344 23.7365 8.33438 18.6965 8.33438C16.2665 8.33438 14.6465 9.65439 13.9865 10.9144H13.9265V8.72438H9.1565V24.7444H14.1365V16.7944C14.1365 14.6944 14.5265 12.6844 17.1065 12.6844C19.6565 12.6844 19.6865 15.0544 19.6865 16.9144V24.7144H24.6665V24.7444ZM1.0565 8.72438H6.0365V24.7444H1.0565V8.72438ZM3.5465 0.744385C1.9565 0.744385 0.666504 2.03438 0.666504 3.62438C0.666504 5.21439 1.9565 6.53438 3.5465 6.53438C5.1365 6.53438 6.4265 5.21439 6.4265 3.62438C6.4265 2.03438 5.1365 0.744385 3.5465 0.744385Z" fill="white"/>
</svg>
