<svg width="150" height="150" viewBox="0 0 150 150" fill="none" xmlns="http://www.w3.org/2000/svg">
<rect width="150" height="150" fill="white"/>
<g clip-path="url(#clip0_7_23082)">
<path d="M35.835 80.0871H40.545V84.5H27.06V65.5H40.41V69.9129H35.82V72.9468H40.005V76.946H35.82V80.0871H35.835ZM15.195 84.5H24.09V65.5H15.195V84.5ZM8.76 65.5H0V84.5H12.81V79.4129H8.76V65.5ZM98.115 76.9306H102.3V72.9315H98.115V69.9129H102.705V65.5H89.355V84.5H102.84V80.0871H98.115V76.9306ZM63.51 79.3976C63.51 81.8798 62.085 83.504 59.655 84.1016C58.59 84.3621 56.865 84.5 55.305 84.5H43.23V65.5H55.23C56.76 65.5 58.44 65.6379 59.49 65.8984C61.86 66.496 63.255 68.1202 63.255 70.6024C63.255 72.8855 61.935 74.4484 60.255 74.954C62.055 75.3677 63.51 76.9919 63.51 79.3976ZM51.705 73.2073H52.92C54.54 73.2073 55.08 72.3798 55.08 71.2153C55.08 70.0508 54.54 69.2234 52.92 69.2234H51.705V73.2073ZM55.35 78.7234C55.35 77.4823 54.795 76.6548 53.055 76.6548H51.705V80.7919H53.055C54.81 80.7766 55.35 79.9492 55.35 78.7234ZM77.55 72.5177H74.58V65.5H65.82V84.5H74.58V77.2065H77.55V84.5H86.31V65.5H77.55V72.5177ZM145.185 76.5782C147.48 75.5056 148.5 73.7282 148.5 71.3073C148.5 68.4879 146.85 66.6492 144.09 65.9597C142.875 65.6685 140.91 65.5 139.14 65.5H128.355V84.5H136.71V78.4476H137.46L140.625 84.5H150L145.185 76.5782ZM137.925 74.4484H136.71V69.9129H137.925C139.545 69.9129 140.085 70.7403 140.085 72.1806C140.085 73.621 139.545 74.4484 137.925 74.4484ZM122.31 76.5782C124.605 75.5056 125.625 73.7282 125.625 71.3073C125.625 68.4879 123.975 66.6492 121.215 65.9597C120 65.6685 118.035 65.5 116.265 65.5H105.48V84.5H113.835V78.4476H114.585L117.75 84.5H127.125L122.31 76.5782ZM115.035 74.4484H113.82V69.9129H115.035C116.655 69.9129 117.195 70.7403 117.195 72.1806C117.195 73.621 116.655 74.4484 115.035 74.4484Z" fill="black"/>
</g>
<defs>
<clipPath id="clip0_7_23082">
<rect width="150" height="19" fill="white" transform="translate(0 65.5)"/>
</clipPath>
</defs>
</svg>
